<svg xmlns="http://www.w3.org/2000/svg" width="180" height="180" viewBox="0 0 180 180">
    <g fill="none" fill-rule="nonzero">
        <rect width="139" height="47" x="19" y="24" fill="#EE596F" rx="23.5"/>
        <g fill="#212121">
            <path d="M115.287 63.996a1 1 0 1 1-1.715-1.03c8.818-14.675 4.07-33.72-10.606-42.538a1 1 0 1 1 1.03-1.715c15.622 9.387 20.677 29.661 11.29 45.283zM58.713 30.004a1 1 0 1 1 1.715 1.03c-8.818 14.675-4.07 33.72 10.606 42.538a1 1 0 1 1-1.03 1.715C54.382 65.9 49.327 45.626 58.714 30.004z"/>
        </g>
        <g fill="#212121">
            <path d="M96.355 67.012a1 1 0 0 1-.814-1.828c10.596-4.717 15.36-17.13 10.643-27.725a1 1 0 0 1 1.828-.814c5.166 11.604-.053 25.2-11.657 30.367zM76.302 26.888a1 1 0 1 1 .813 1.827c-10.595 4.718-15.36 17.13-10.643 27.726a1 1 0 0 1-1.827.814c-5.167-11.605.052-25.2 11.657-30.367z"/>
        </g>
        <g fill="#212121">
            <path d="M85.035 33.215a1 1 0 1 1 .21 1.989c-6.043.635-10.426 6.047-9.79 12.09a1 1 0 0 1-1.99.208c-.75-7.14 4.43-13.537 11.57-14.287zM97.728 52.426a1 1 0 1 1-1.75-.97c2.946-5.313 1.026-12.008-4.287-14.954a1 1 0 0 1 .97-1.749c6.279 3.481 8.547 11.393 5.067 17.673z"/>
        </g>
        <path fill="#F5F5F5" d="M74.811 109.67C60.091 96.477 51.15 91.259 47.99 94.017c-3.16 2.757-.534 10.336 7.878 22.737l30.18 44.045h40.97c3.597-14.73 5.396-25.17 5.396-31.317 0-9.22-3.897-31.886-7.47-35.465-2.383-2.387-5.195-3.307-8.437-2.763-1.92-7.789-5.7-10.528-11.338-8.217-.905-5.472-2.587-10.117-8.586-10.117-2.183-.04-3.662.162-4.435.605V46.68c-.373-3.243-2.101-4.864-5.184-4.864-3.082 0-4.934 1.621-5.553 4.864l-6.599 62.99z"/>
        <path stroke="#FFF" d="M92.1 98.837V73.525M106.512 103.905c-.555-13.044-1.008-20-1.358-20.868M116.945 105.01c.014-8.226-.152-12.895-.5-14.006"/>
        <path stroke="#000" stroke-linecap="round" stroke-linejoin="round" stroke-width="2" d="M71.055 108.086c-1.84-1.619-20.337-19.784-24.401-12.487-1.703 3.056 4.484 14.573 4.89 15.191 11.21 17.086 23.254 33.61 34.88 50.414M74.914 105.461c2.714-19.003 1.844-41.436 7.248-60.001 1.26-4.332 8.827-3.522 9.092.897 1.054 17.56.901 35.17 1.352 52.755M92.508 74.201c16.66 3.88 11.384 9.923 13.805 30.224M104.953 83.566c13.29-.003 11.606 10.324 12.173 21.383"/>
        <path stroke="#000" stroke-linecap="round" stroke-linejoin="round" stroke-width="2" d="M116.547 91.804c16.967-.004 15.841 31.515 15.743 40.45-.077 7.058-1.743 14.033-3.301 20.918-.638 2.817-.432 7.402-3.251 8.03-10.295 2.296-21.094-.166-31.64-.25M81.622 24.317l21.864-.147M114.92 24.131c16.027-.26 19.378-2.861 31.469 2.884 15.542 7.385 13.453 31.866.35 40.466-8.512 5.587-38.267 3.416-47.249 3.605M81.907 24.343c-6.92-.032-44.923-2.732-54.48 4.623-9.559 7.355-11.677 33.162 4.253 39.893 8.806 3.72 21.1 2.633 29.886 2.723"/>
    </g>
</svg>
