<svg xmlns="http://www.w3.org/2000/svg" width="61" height="63" viewBox="0 0 61 63">
    <g fill="#79C7E1" fill-rule="nonzero">
        <path d="M33.807 44h-6.614C24.88 44 23 45.794 23 48s1.88 4 4.193 4h6.614C36.12 52 38 50.206 38 48s-1.88-4-4.193-4zm0 5.692h-6.614c-.978 0-1.773-.76-1.773-1.692 0-.933.795-1.692 1.773-1.692h6.614c.978 0 1.773.76 1.773 1.692 0 .933-.795 1.692-1.773 1.692z"/>
        <path d="M58.003 18.986h-.154v-.715a3.106 3.106 0 0 0-3.095-3.11h-4.286v-4.47a8.548 8.548 0 0 0-5.795-8.109l-1.416-.48A39.7 39.7 0 0 0 30.5 0a39.68 39.68 0 0 0-12.757 2.103l-1.416.48a8.548 8.548 0 0 0-5.795 8.108V15.16H6.246a3.106 3.106 0 0 0-3.095 3.11v.716h-.154A3.008 3.008 0 0 0 0 21.997v7.651a3.008 3.008 0 0 0 2.997 3.012h.154v.654c0 1.229.784 2.3 1.95 2.666l5.43 1.706V51.39a5.14 5.14 0 0 0 3.647 4.919v3.083c0 1.99 1.61 3.607 3.59 3.607h2.884c1.98 0 3.59-1.618 3.59-3.607v-2.868h12.516v2.868c0 1.99 1.61 3.607 3.59 3.607h2.885c1.979 0 3.589-1.618 3.589-3.607V56.31a5.14 5.14 0 0 0 3.646-4.919V37.686l5.43-1.706a2.78 2.78 0 0 0 1.951-2.666v-.654h.154A3.008 3.008 0 0 0 61 29.648v-7.65a3.007 3.007 0 0 0-2.997-3.012zM3.151 30.199h-.154a.55.55 0 0 1-.548-.55v-7.652a.55.55 0 0 1 .548-.55h2.888a.55.55 0 0 1 .548.55v7.651a.55.55 0 0 1-.548.55H3.15zm7.38 4.908l-4.699-1.476a.33.33 0 0 1-.232-.317v-.654h.285a3.007 3.007 0 0 0 2.997-3.012v-7.65a3.007 3.007 0 0 0-2.997-3.012H5.6v-.715c0-.358.29-.65.646-.65h4.286v17.486zM20.653 60.54h-2.885c-.628 0-1.14-.514-1.14-1.146v-2.857h5.165v2.857c0 .632-.511 1.146-1.14 1.146zm22.58 0h-2.885c-.628 0-1.14-.514-1.14-1.146v-2.857h5.165v2.857c0 .632-.51 1.146-1.14 1.146zm4.787-9.194a2.67 2.67 0 0 1-2.66 2.673H15.64a2.67 2.67 0 0 1-2.66-2.673v-9.263h35.038v9.263zm0-11.724H31.05L17.821 26.976a1.22 1.22 0 0 0-1.731.043 1.235 1.235 0 0 0 .043 1.74l11.361 10.862H12.981V14.008h4.447v2.27c0 2.423 1.962 4.394 4.373 4.394h7.107c.676 0 1.225-.551 1.225-1.23 0-.68-.549-1.231-1.225-1.231h-7.107a1.93 1.93 0 0 1-1.924-1.933v-2.25h21.246v2.25a1.93 1.93 0 0 1-1.924 1.933h-.495c-.676 0-1.224.55-1.224 1.23 0 .68.548 1.23 1.224 1.23h.495c2.411 0 4.373-1.97 4.373-4.393v-2.27h4.447V39.62zm0-28.074H12.981v-.856a6.09 6.09 0 0 1 4.129-5.777l1.416-.48a36.836 36.836 0 0 1 3.827-1.067l.134-.029c.137-.03.274-.06.412-.088l.12-.024c.143-.03.286-.058.428-.085l.092-.017c.153-.03.307-.058.46-.084l.06-.01c.165-.03.33-.057.495-.084l.027-.004a37.675 37.675 0 0 1 6.101-.468h.004c.183 0 .367.003.55.007h.022c.177.004.355.008.532.014l.042.002.512.021.064.004.491.027.083.006c.157.01.315.021.472.034l.104.008c.15.013.301.025.451.04.042.003.083.008.125.012.143.013.287.028.43.043l.146.017c.137.015.274.03.41.048l.166.021.39.051c.061.01.123.018.185.027l.37.055.207.033.347.056.233.041.32.057.264.05c.096.02.193.037.29.057l.292.06.26.055c.117.025.234.052.35.079l.2.045a36.903 36.903 0 0 1 3.48.99l1.416.48a6.09 6.09 0 0 1 4.13 5.777v.856zm7.38 21.767a.33.33 0 0 1-.231.317l-4.7 1.476V17.621h4.286c.356 0 .646.292.646.65v.715h-.285a3.007 3.007 0 0 0-2.997 3.011v7.651a3.007 3.007 0 0 0 2.997 3.012h.285v.654zm3.152-3.666a.55.55 0 0 1-.548.55h-2.888a.55.55 0 0 1-.548-.55v-7.65a.55.55 0 0 1 .548-.551h2.888a.55.55 0 0 1 .548.55v7.651z"/>
        <path d="M32.79 4h-5.58C26.542 4 26 4.448 26 5s.542 1 1.21 1h5.58C33.458 6 34 5.552 34 5s-.542-1-1.21-1zM35.795 8h-10.59C24.539 8 24 8.448 24 9s.54 1 1.205 1h10.59C36.461 10 37 9.552 37 9s-.54-1-1.205-1zM17.5 43c-1.93 0-3.5 1.57-3.5 3.5s1.57 3.5 3.5 3.5 3.5-1.57 3.5-3.5-1.57-3.5-3.5-3.5zm0 4.847a1.349 1.349 0 0 1-1.347-1.347c0-.743.604-1.347 1.347-1.347s1.347.604 1.347 1.347-.604 1.347-1.347 1.347zM43.5 43c-1.93 0-3.5 1.57-3.5 3.5s1.57 3.5 3.5 3.5 3.5-1.57 3.5-3.5-1.57-3.5-3.5-3.5zm0 4.847a1.349 1.349 0 0 1-1.347-1.347c0-.743.604-1.347 1.347-1.347s1.347.604 1.347 1.347-.604 1.347-1.347 1.347zM34.98 18.805a.987.987 0 0 0-.597-.728.985.985 0 0 0-.938.092.957.957 0 0 0-.276.276.987.987 0 0 0-.149.36.986.986 0 0 0 .273.902.957.957 0 0 0 .325.216.985.985 0 0 0 1.089-.216.957.957 0 0 0 .216-.324A.97.97 0 0 0 35 19a.986.986 0 0 0-.02-.195z"/>
    </g>
</svg>
