<svg xmlns="http://www.w3.org/2000/svg" width="349" height="208" viewBox="0 0 349 208">
    <g fill="none" fill-rule="evenodd">
        <path fill="#F5F5F5" d="M22 109l1 16 7-13 8 6 5-11 11.324.5L38 80zM99.574 76.613L120 64l5 18 18-37 15 26 9-13 26.744 30.493L143 1zM294.912 185.083c-10.43 0-18.965-8.534-18.965-18.965 0 0 7.854-55.178 17.453-55.178h3.025c9.598 0 17.453 55.178 17.453 55.178 0 10.431-8.535 18.965-18.966 18.965"/>
        <path stroke="#BDBDBD" stroke-width="2" d="M294.912 185.083c-10.43 0-18.965-8.534-18.965-18.965 0 0 7.854-55.178 17.453-55.178h3.025c9.598 0 17.453 55.178 17.453 55.178 0 10.431-8.535 18.965-18.966 18.965z"/>
        <path stroke="#BDBDBD" stroke-linecap="round" stroke-linejoin="round" stroke-width="2" d="M295.294 206.436v-38.555M68 131L38.32 80 1 144M236.76 163L143.23 1 49.698 163"/>
        <path fill="#F5F5F5" d="M232.816 162.05h8.123c11.238 0 20.433-9.194 20.433-20.433v-27.315c0-11.238-9.195-20.433-20.433-20.433h-8.123c-11.238 0-20.434 9.195-20.434 20.433v27.315c0 11.239 9.196 20.434 20.434 20.434"/>
        <path stroke="#BDBDBD" stroke-width="2" d="M232.816 162.05h8.123c11.238 0 20.433-9.194 20.433-20.433v-27.315c0-11.238-9.195-20.433-20.433-20.433h-8.123c-11.238 0-20.434 9.195-20.434 20.433v27.315c0 11.239 9.196 20.434 20.434 20.434z"/>
        <path stroke="#BDBDBD" stroke-linecap="round" stroke-linejoin="round" stroke-width="2" d="M236.625 142.858v63.637L237 207h111"/>
    </g>
</svg>
