<svg xmlns="http://www.w3.org/2000/svg" width="345" height="208" viewBox="0 0 345 208">
    <g fill="none" fill-rule="evenodd">
        <path fill="#F5F5F5" d="M53.684 127.96L65.053 123l-2 18 20-26 3 13 5-10 16.37 7.119-26.37-45.12zM258.684 105.96l11.369-4.96-2 18 20-26 3 13 5-10 16.37 7.119-26.37-45.12zM236.797 88.493L205.053 57l-10 23-16-32-12 17-5-11-17.543 19.185L186.053 1zM19.965 185.083C9.534 185.083 1 176.549 1 166.118c0 0 7.854-55.178 17.453-55.178h3.025c9.598 0 17.453 55.178 17.453 55.178 0 10.43-8.535 18.965-18.966 18.965"/>
        <path stroke="#BDBDBD" stroke-width="2" d="M19.965 185.083C9.534 185.083 1 176.549 1 166.118c0 0 7.854-55.178 17.453-55.178h3.025c9.598 0 17.453 55.178 17.453 55.178 0 10.43-8.535 18.965-18.966 18.965z"/>
        <path stroke="#BDBDBD" stroke-linecap="round" stroke-linejoin="round" stroke-width="2" d="M20.347 206.436v-38.555M141.995 185L81.373 80l-40.32 70M344.053 158l-57.96-101-34.04 58"/>
        <path stroke="#BDBDBD" stroke-linecap="round" stroke-linejoin="round" stroke-width="2" d="M279.813 163L186.283 1l-75.23 130"/>
    </g>
</svg>
