<svg xmlns="http://www.w3.org/2000/svg" width="180" height="180" viewBox="0 0 180 180">
    <g fill="none" fill-rule="evenodd">
        <path fill="#BDBDBD" d="M176.866 137.575c0 6.075-36.215 11-80.89 11-44.673 0-80.887-4.925-80.887-11s36.214-11 80.888-11c44.674 0 80.889 4.925 80.889 11"/>
        <path fill="#FFF" d="M86.63 63.471c-.082-2.056-.543-3.384-1.696-4.593-1.74-3.674-3.542-7.765-6.905-10-.293-.195-.599-.355-.904-.52a5.6 5.6 0 0 0-.477-.657c-1.7-1.995-3.584-3.428-5.966-4.5a7.101 7.101 0 0 0-1.676-.51c-.618-1.815-2.257-3.31-4.625-3.483-7.272-.535-17.122-.017-22.44 5.702-2.98 3.203-5.25 7.225-7.015 11.188-1.27 2.85-3.734 5.885-3.993 9.042-.686 8.37 11.594 6.948 16.791 6.248a15.694 15.694 0 0 0 1.764-.345 4.522 4.522 0 0 0 1.742 1.726c7.35 4.12 13.495 8.889 21.33 11.106 1.57 2.446 4.836 3.609 7.314.742l1.046-1.21a5.802 5.802 0 0 0 1.112-1.897c3.077-4.987 4.541-10.415 4.287-16.224a4.405 4.405 0 0 0 .311-1.814M16.947 80.542c-.055-1.558-.606-3.055-1.688-4.193-1.448-1.526-3.857-2.334-5.916-1.684-2.491.787-4.325 3.143-4.102 5.824.138 1.667.654 3.335 1.63 4.71.769 1.086 1.666 1.935 2.988 2.299 1.197.329 2.79.18 3.853-.504.815-.525 1.553-1.25 1.987-2.128.464-.533.823-1.15.958-1.838.16-.816.319-1.652.29-2.486M69.54 101.761c.007-.063.02-.12.028-.183.187-1.956-.71-3.972-2.246-5.159-2.211-1.707-5.42-1.543-7.371.529a6.428 6.428 0 0 0-1.692 5.003c.132 1.328.346 2.16.919 3.364.345.728.839 1.3 1.344 1.942.952 1.207 2.782 1.566 4.2 1.374 1.453-.194 2.974-1.007 3.654-2.386l.553-1.124c.525-1.066.8-2.192.61-3.36M89.755 119.754c-2.709.12-5 2.196-5 5v6c0 2.615 2.3 5.12 5 5 2.71-.122 5-2.197 5-5v-6c0-2.616-2.3-5.121-5-5M145.735 120.92c-.104-2.61-2.225-5.123-5-5-2.62.118-5.112 2.202-5 5l.22 5.499c.105 2.61 2.225 5.124 5 5 2.62-.117 5.113-2.201 5-5l-.22-5.498"/>
        <path fill="#BDBDBD" d="M154.282 69.612c-.105-.976-.872-1.697-1.898-1.447-.998.244-.223.351-.92.797-.53.373-1.745 2.732-2.125 3.25-1.25 1.82-7.653-.594-3.5-6.125.292-1.81 2.758-3.293 3.002-5.25.128-1.035.11-2.663-.244-3.966.297-.32.438-.779.254-1.335-.66-2.002-3.12-5.129-5.32-3.267-.93-.346-2.104.08-1.947 1.306.149 1.164.343 1.966.76 3.07 1.088 2.87.724 4.494-.037 7.298l-.006.03a1.41 1.41 0 0 0-.535.927 1.25 1.25 0 0 0-.796.647c-1.198 2.424-1.797 4.747-.212 7.132.315 1.57.909 2.771 2.396 3.518 1.298.652 2.734 1.361 4.193 1.116.017-.003.027-.013.042-.015.327.194.725.28 1.133.193 3.798-.809 6.178-4.008 5.76-7.879M90.972 132.005c-.149.807-.228 1.732-.39 2.616-.21.076-.43.16-.662.25-1.733-1.68-2.615-2.875-2.596-5.474.006-.837 1.17-6.533 1.014-6.56 1.251.218 2.033-.728 2.958-1.207.42.94.73 1.91.934 2.992.013.074.054.123.075.19l-1.333 7.193m6.114-10.725c.318-1.075.087-2.16-.423-3.143-.47-.907-1.237-1.614-1.394-2.656-.108-.71-.898-1.126-1.573-1.09-.564-.944-1.54-1.674-3.023-1.932-7.3-1.27-11.676 4.003-12.78 10.767a40.74 40.74 0 0 0-.396 3.165c-2.38.43-4.605 2.37-4.318 4.9.313 2.74 1.137 5.337 2.598 7.637-1.245 6.683 10.907 7.632 15.134 5.61 7.541-3.604 7.842-16.028 6.175-23.258M140.944 129.482a5.35 5.35 0 0 0-.176-.114.512.512 0 0 0-.043-.036c-.082-.077-.167-.15-.244-.232-.054-.05-.09-.08-.116-.099a1.275 1.275 0 0 0-.073-.168c-.046-.09-.233-.608-.195-.436a5.505 5.505 0 0 1-.083-.312l-.006-.082a3.619 3.619 0 0 0-.396-1.358c-.3-3.035.392-6.389 1.843-8.299.485.115.999.112 1.489.011.68 4.082 1.187 8.854.395 10.813-.531-.076-.973.458-1.362 1.004-.031.044.56-.714.529-.67-.062-.052-.746.7-.806.648a3.14 3.14 0 0 0-.756-.67m5.927-4.239c.018-4.118.25-8.062-1.708-11.795-.035-.068-.077-.122-.118-.18-.067-.369-.135-.74-.198-1.106-.142-.83-.776-1.144-1.417-1.076-.536-.839-1.495-1.43-2.66-1.445a3.13 3.13 0 0 0-1.457-.338c-3.142 0-4.974-1.633-6.817 2.812-.628 1.516-.905 2.976-.97 4.514-.027.02-.056.04-.084.058-1.798-.357-3.968.632-3.788 2.82.079.964.188 1.913.322 2.853-1.515 2.705-.586 6.833 1.196 10.143-.112.621.293 1.42.602 2.142 2.074 4.853 7.252 3.007 11.288 3.486.478.057.896-.007 1.26-.154.863.524 2.327.115 2.379-1.224.025-.644.088-1.268.17-1.886.09-.064.179-.136.265-.227 2.366-2.496 1.72-6.2 1.735-9.397M37.78 118.772a3.06 3.06 0 0 0-.996-.183 26.228 26.228 0 0 0-1.305-.786 70.893 70.893 0 0 0-6.79-3.362c-1.575-.68-3.47-1.847-5.227-1.83a3.732 3.732 0 0 0-.86.12 3.536 3.536 0 0 0-1.29-.297c-.115-.216-.223-.433-.347-.647-1.514-2.627-5.521-1.417-5.591 1.513-.191 7.938-2.078 18.717 7.658 21.573 3.274.96 7.444 1.063 10.602-.347 3.62-1.617 5.104-5.28 5.857-8.963.13-.635.202-1.195.236-1.715 1.455-1.637.805-4.922-1.946-5.076"/>
        <path fill="#000" d="M141.413 139.533l-.047-.001-8.083-.5h-.002c-3.733 0-6.693-6.836-6.693-15.563 0-8.728 2.96-15.564 6.74-15.564a.75.75 0 0 1 0 1.5c-2.478 0-5.24 5.775-5.24 14.064 0 8.288 2.762 14.064 5.24 14.064l8.13.501a.751.751 0 0 1-.045 1.499M87.812 145.236c-2.28 0-6.017-.07-7.665-.508-4.977-1.316-7.83-7.454-7.83-16.84 0-9.625 4.037-17.165 9.19-17.165a.75.75 0 0 1 0 1.5c-4.169 0-7.69 7.174-7.69 15.665 0 8.525 2.51 14.28 6.713 15.391 2.202.581 9.056.442 9.13.44.38.015.755.321.764.735a.748.748 0 0 1-.734.765 94.28 94.28 0 0 1-1.878.017"/>
        <path fill="#000" d="M90.005 122.254c-.436 0-1.5 1.985-1.5 5.666 0 3.68 1.064 5.667 1.5 5.667.436 0 1.5-1.986 1.5-5.667s-1.064-5.666-1.5-5.666m0 12.833c-2.062 0-3-3.715-3-7.167 0-3.451.938-7.166 3-7.166 2.062 0 3 3.715 3 7.166 0 3.452-.938 7.167-3 7.167M30.316 134.999c-2.28 0-6.02-.071-7.67-.51-4.976-1.313-7.829-7.452-7.829-16.838 0-9.625 4.037-17.165 9.19-17.165a.75.75 0 0 1 0 1.5c-4.169 0-7.69 7.174-7.69 15.665 0 8.526 2.51 14.279 6.713 15.39 2.204.583 9.057.443 9.129.44.431.033.757.32.765.736a.748.748 0 0 1-.734.765c-.091.002-.83.017-1.874.017"/>
        <path fill="#000" d="M32.174 102.153c-4.169 0-7.69 7.174-7.69 15.665s3.521 15.664 7.69 15.664c4.17 0 7.69-7.173 7.69-15.664 0-8.49-3.52-15.665-7.69-15.665m0 32.83c-5.153 0-9.19-7.54-9.19-17.165s4.037-17.165 9.19-17.165 9.19 7.54 9.19 17.165-4.037 17.164-9.19 17.164"/>
        <path fill="#0A9AC9" d="M69.505 106.254c-2.088 1.048-1.95 1.559-4.084 2.5-2.583.416-7.583-1.821-7.382-3.822a4.45 4.45 0 0 0-.294-2.167c.34-.447.61-.947.76-1.507.538-2.01.9-4.117 2.862-5.12.344-.174.634-.385.9-.61 1.02.135 2.547-.47 3.552-.15 1.486.473 4.441 2.56 4.635 4.38.155 1.445-.909 2.582.051 3.496-.07 1.114-.602 1.976-1 3m85.117.857c-1.65-8.044 3.434-19.231-9.12-18.375-4.529.309-10.023.396-14.364 1.796a.894.894 0 0 0-.139.059c-.005-.68.07-1.34-.039-2.041-.263-1.71-.967-3.381-2.303-4.55-3.055-2.67-7.445-1.636-11.118-1.368-1.81.132-3.757.142-5.657.34 5.582-6.426 11.021-12.973 16.27-19.675 2.684-3.428 5.452-6.834 7.945-10.403 1.192-1.707 2.262-3.418 3.033-5.362.444-1.12.614-4.442 1.44-5.224 3.474-3.291-.097-10.13-4.865-8.358-6.499 2.416-11.49 6.99-16.99 11.076-6.012 4.466-12.197 8.685-18.509 12.715-.07.045-.132.094-.198.14-.695-2.417-1.662-4.777-3.085-7.052-2.379-3.803-5.112-7.86-8.605-10.715-3.92-3.204-8.69-4.922-13.427-6.536-.96-.327-1.834-.363-2.602-.184a33.048 33.048 0 0 0-2.707-.955 5.437 5.437 0 0 0-1.128-.218 6.698 6.698 0 0 0-2.043-.555c-5.733-.612-10.836-.13-15.635 2.984-2.313 1.5-6.88 3.149-6.23 5.52.79 2.87 4.527.387 7.23.167 7.187-.583 9.407-.138 14.125.25.327.18.624 1.375 1.023 1.495.153.046 1.765-.105 1.914-.057.585 1.205.133 2.443 1.52 2.97 5.167 1.973 9.48 6.092 13.855 11.842 1.683 2.21 2.367 4.833 3.1 7.13-.7 3.715-.789 7.569-2.123 11.222-1.284 3.514-3.573 6.163-4.89 9.202a49.28 49.28 0 0 1-2.732 1.905c-.396-.612-.97-1.166-1.75-1.612l-13.472-7.7c-.069-.04-.137-.068-.205-.103a25.026 25.026 0 0 0-.975-.58c-4.49-2.525-9.356-4.575-14.09-6.606-9.614-4.127-19.674-1.137-29.222 1.966-3.46 1.125.341 5.328-.849 8.176-.13.31-.869.646-.625.878-.02.097-.043.19-.063.29-.324 1.609-.507 6.903-3.19 6.463-.025-.004-.049-.004-.074-.008-2.025.327-4.172-1.041-5.527.315-3.063 3.062-5.655 9.946-4.02 14.229 2.135 5.6 11.397 7.184 16.304 9.314 6.577 2.857 13.15 5.72 19.731 8.569 2.978 1.289 5.958 2.583 8.982 3.76 2.75 1.072 6.69 1.629 9.072 3.308.956.674 4.493 3.882 11.118 2.132 3.35-.885 10.643-.758 12.73-4.2 1.826-3.01.791-7.214 2.01-10.446l.03-.086c1.032-.085 1.457-1.561 2.272-2.518.042-.05 3.373-.701 3.416-.75 3.917-.917 7.988 1.51 8.167 6.25-.118 3.25.304 7.106 4.083 5.583.135-.054.84-.467.967-.526 1.478-.234 2.828-1.08 3.537-2.516a7.53 7.53 0 0 0 1.933.418c3.121.245 6.57-.723 9.646-1.216 4.07-.654 8.076-1.503 12.035-2.66 1.834-.536 2.904-1.75 3.334-3.144.266-.296.067-1.258.298-1.606.486-.728.75-2.11 1.198-2.895-.146.634 3.006-.21 3.636-.188 1.26.03 2.676.445 3.916.667.89.482 1.183 1.26 1.386 1.04.84 3.13 4.365 4.209 6.954 3.22 2.93-.193 4.948-3.544 4.361-6.403"/>
        <path fill="#000" d="M11.029 75.333c-2.841 0-5.152 2.625-5.152 5.852 0 3.227 2.31 5.852 5.152 5.852s5.153-2.625 5.153-5.852c0-3.227-2.311-5.852-5.153-5.852m0 13.204c-3.668 0-6.652-3.298-6.652-7.352s2.984-7.352 6.652-7.352c3.669 0 6.653 3.298 6.653 7.352s-2.984 7.352-6.653 7.352M64.362 95.937c-2.484 0-4.838 1.876-5.58 4.657-.422 1.588-.262 3.226.453 4.613.7 1.361 1.856 2.316 3.25 2.687 1.395.371 2.872.118 4.158-.714 1.31-.847 2.264-2.188 2.687-3.777.423-1.588.262-3.226-.452-4.612-.702-1.362-1.856-2.317-3.251-2.688a4.907 4.907 0 0 0-1.265-.166m-.6 13.625a6.435 6.435 0 0 1-1.663-.219c-1.808-.48-3.3-1.707-4.198-3.449-.885-1.719-1.086-3.737-.567-5.686 1.08-4.05 4.97-6.544 8.679-5.554 1.809.481 3.3 1.707 4.199 3.45.884 1.718 1.086 3.736.567 5.686-.52 1.948-1.698 3.6-3.321 4.65-1.147.741-2.417 1.122-3.695 1.122M56.92 95.004a.751.751 0 0 1-.444-.146 21.995 21.995 0 0 1-.971-.785c-2.002-1.668-6.166-5.14-15.163-8.278-7.53-2.627-17.822-2.73-17.925-2.73a.75.75 0 0 1 .005-1.5h.005c.43.002 10.64.104 18.409 2.814 9.255 3.229 13.56 6.817 15.629 8.543.358.299.653.546.901.728a.75.75 0 0 1-.446 1.354"/>
        <path fill="#000" d="M61.045 128.504c-3.69 0-52.638-20.408-55.52-23.161-3.069-2.93-1.834-6.967-1.78-7.138L6.79 86.298a.761.761 0 0 1 .912-.541.75.75 0 0 1 .542.912L5.187 98.617c-.053.174-1.007 3.367 1.375 5.642 2.518 2.404 51.204 22.744 54.436 22.746h.017c1.877-.095 4.892-10.112 6.008-16.82a.748.748 0 0 1 .864-.618.753.753 0 0 1 .617.864c-.03.178-3.094 17.854-7.416 18.072a.603.603 0 0 1-.043 0M19.756 78.67a.749.749 0 0 1-.37-1.402l10.75-6.083a.746.746 0 0 1 1.021.283.748.748 0 0 1-.283 1.02l-10.75 6.084a.733.733 0 0 1-.368.098M63.088 93.004a.748.748 0 0 1-.489-1.318l7.75-6.667a.748.748 0 0 1 1.057.079.748.748 0 0 1-.079 1.057l-7.75 6.667a.745.745 0 0 1-.489.182"/>
        <path fill="#000" d="M68.65 129.02c-2.848 0-5.562-.187-7.555-.506a.75.75 0 0 1-.622-.858.745.745 0 0 1 .859-.622c4.868.78 14.659.738 18.94-1.026.477-10.717 6.084-19.045 12.896-19.045 1.372 0 2.524.523 3.425 1.552 3.16 3.61 2.082 12.488 1.949 13.488-.045.341.015.438.015.44.332.341 2.706-.265 4.612-.75.5-.128 1.03-.263 1.592-.402 1.628-9.055 1.633-27.04.75-33.402-2.8-20.21-6.4-33.615-10.707-39.893-6.05-8.814-18.9-15.33-30.56-15.493-7.557-.133-16.98 3.205-18.964 6.687-.486.854-.485 1.658.003 2.46a.75.75 0 0 1-1.28.78c-.777-1.27-.787-2.649-.026-3.982 2.5-4.39 12.767-7.576 20.289-7.445 12.109.17 25.472 6.96 31.775 16.144 4.44 6.473 8.125 20.093 10.95 40.484.918 6.62.895 25.397-.845 34.416a.748.748 0 0 1-.56.586c-.73.178-1.414.352-2.047.513-3.232.822-5.013 1.275-5.978.417-.44-.39-.61-.98-.506-1.757.419-3.148.627-9.77-1.59-12.303-.613-.7-1.364-1.04-2.297-1.04-5.228 0-11.078 6.907-11.413 18.063a.748.748 0 0 1-.424.653c-2.732 1.314-7.894 1.841-12.68 1.841"/>
        <path fill="#000" d="M77.207 87.233a.748.748 0 0 1-.436-1.36c11.36-8.087 10.207-29.173 9.64-32.076-1.141-5.854-10.165-16.79-26.76-16.792-22.033 0-28.87 30.94-28.936 31.252a.75.75 0 0 1-1.467-.312c.068-.324 7.17-32.44 30.402-32.44h.002c17.467.001 27.007 11.727 28.233 18.005.7 3.588 1.787 25.021-10.244 33.584a.746.746 0 0 1-.434.14M25.751 95a.75.75 0 0 1 .741.64c1.15 7.746 11.548 8.687 11.654 8.696a.748.748 0 0 1 .685.809.74.74 0 0 1-.809.685c-.118-.009-2.929-.252-5.937-1.567-4.079-1.784-6.525-4.69-7.077-8.403a.75.75 0 0 1 .743-.86M105.633 121.668a.75.75 0 0 1-.073-1.496c13.613-1.352 25.423-3.811 25.79-5.37.553-3.051 2.556-10.21 9.171-10.786 5.885-.521 6.608 4.625 6.994 7.386.086.614.2 1.427.337 1.753l.402-.045c5.396-.59 5.96-.652 5.96-7.648 0-.994.032-2.107.067-3.273.148-4.923.35-11.667-2.27-11.94-1.069-.111-5.339.307-9.475.709-10.068.98-12.088 1.06-12.708.498a.925.925 0 0 1-.278-.62c0-.76.006-1.46.012-2.105.025-3.073.041-4.928-.655-5.616-.394-.39-1.188-.56-2.555-.528-5.796.107-20.479 1.905-20.626 1.923a.743.743 0 0 1-.836-.653.747.747 0 0 1 .652-.835c.607-.076 14.908-1.826 20.782-1.935 1.857-.043 2.914.244 3.64.962 1.144 1.134 1.127 3.109 1.097 6.695-.004.486-.008 1.006-.01 1.558 1.634.11 7.183-.432 11.34-.837 4.596-.447 8.565-.831 9.775-.707 4.006.417 3.798 7.354 3.614 13.475-.034 1.15-.067 2.248-.067 3.229 0 8.035-1.393 8.494-7.296 9.14l-.579.063c-1.367.144-1.577-1.405-1.809-3.055-.498-3.551-1.273-6.467-5.377-6.1-5.585.486-7.335 6.848-7.828 9.56-.653 3.588-19.18 5.807-27.116 6.594a.64.64 0 0 1-.075.004"/>
        <path fill="#000" d="M113.39 83.663a.751.751 0 0 1-.6-1.199c.084-.113 8.52-11.414 19.568-27.372C143.041 39.66 143 37.497 141.72 35.959c-1.388-1.667-3.276-.782-3.82-.471-1.038.68-21.62 18.645-35.199 30.55a.75.75 0 0 1-.989-1.127c5.726-5.02 34.345-30.1 35.443-30.726 1.576-.898 4.02-1.224 5.717.813 1.983 2.38 1.705 5.08-9.28 20.947-11.064 15.982-19.515 27.305-19.599 27.417a.75.75 0 0 1-.602.3"/>
        <path fill="#000" d="M99.971 58.321a.75.75 0 0 1-.422-1.37c.26-.177 26.074-17.668 31.775-21.13 7.168-4.354 10.198-1.947 10.323-1.842a.751.751 0 0 1-.949 1.162c-.074-.052-2.526-1.724-8.595 1.961-5.669 3.444-31.452 20.913-31.712 21.09a.749.749 0 0 1-.42.13M52.946 73.268a.75.75 0 0 1-.745-.84c1.225-10.113 18.394-33.014 19.124-33.984a.751.751 0 0 1 1.199.902c-.177.234-17.657 23.547-18.835 33.262a.75.75 0 0 1-.743.66"/>
        <path fill="#000" d="M69.463 43.024a.76.76 0 0 1-.293-.06c-9.44-4.01-24.189-.237-24.338-.199a.75.75 0 0 1-.379-1.45c.624-.165 15.397-3.94 25.303.27a.748.748 0 1 1-.293 1.44M87.057 67.024a.75.75 0 0 1-.75-.75c.005-4.799-2.235-9.176-6.849-13.383-5.15-4.696-11.59-8.107-11.656-8.14a.75.75 0 0 1 .697-1.329c.271.143 6.678 3.536 11.97 8.36 4.943 4.508 7.344 9.25 7.338 14.493a.75.75 0 0 1-.75.75M141.412 109.905c-2.48 0-5.24 5.775-5.24 14.063 0 8.29 2.76 14.065 5.24 14.065 2.479 0 5.24-5.776 5.24-14.065 0-8.288-2.761-14.063-5.24-14.063m0 29.628c-3.78 0-6.74-6.837-6.74-15.565 0-8.727 2.96-15.563 6.74-15.563 3.779 0 6.74 6.836 6.74 15.563 0 8.728-2.961 15.565-6.74 15.565"/>
        <path fill="#000" d="M141.413 109.905a.734.734 0 0 1-.131-.012 15.02 15.02 0 0 1-.508-.102c-1.242-.262-4.541-.956-6.125-.32a.749.749 0 1 1-.558-1.392c2.008-.807 5.502-.07 6.993.244.199.042.355.075.458.094a.749.749 0 1 1-.129 1.488M84.539 64.462a2.362 2.362 0 1 1-4.724-.001 2.362 2.362 0 0 1 4.724 0M60.617 49.587a2.362 2.362 0 1 1-4.723-.001 2.362 2.362 0 0 1 4.723 0M138.596 38.186a.61.61 0 1 0 .001 1.22.61.61 0 0 0 0-1.22m0 2.72a2.112 2.112 0 0 1-2.11-2.11c0-1.164.946-2.11 2.11-2.11 1.162 0 2.108.946 2.108 2.11 0 1.162-.946 2.11-2.109 2.11M141.987 119.594c-.276.103-1.1 1.665-1.1 4.576 0 2.91.824 4.475 1.137 4.577.275-.102 1.098-1.666 1.098-4.577s-.823-4.473-1.135-4.576m.019 10.65c-1.798 0-2.618-3.148-2.618-6.074 0-2.926.82-6.074 2.618-6.074 1.797 0 2.616 3.148 2.616 6.074 0 2.926-.82 6.075-2.616 6.075M145.025 55.524a.749.749 0 0 1-.73-.586c-1.078-4.805-2.56-14.767-2.574-14.866a.75.75 0 1 1 1.485-.221c.014.1 1.487 10.008 2.55 14.76a.748.748 0 0 1-.731.913"/>
        <path fill="#000" d="M144.088 51.587h.01-.01zm1.024.594a2.77 2.77 0 0 0-.808.125c-1.047.313-1.68.957-1.882 1.912-.283 1.339.378 2.885 1.154 3.55.896.768 1.556 1.629.597 4.436-.362 1.062-.923 1.743-1.516 2.466-.586.713-1.25 1.522-1.886 2.916-.548 1.198-.54 4.05.897 6.287 1.3 2.022 3.403 3.047 6.253 3.047 2.047 0 3.635-.677 4.72-2.012.86-1.06 1.352-2.51 1.352-3.977 0-1.431-.499-2.344-.842-2.344-.517 0-.889.64-1.44 1.694-.699 1.334-1.567 2.993-3.56 2.993-1.459 0-2.655-.51-3.367-1.438-.538-.701-1.058-1.987-.483-4.131.43-1.596 1.323-2.497 2.112-3.292.57-.573 1.062-1.068 1.272-1.738.43-1.366.398-2.814.376-3.87-.012-.565-.022-1.011.04-1.35.316-1.776-.209-3.628-1.307-4.606-.37-.331-.933-.668-1.682-.668zm2.81 26.239c-4.228 0-6.42-2.031-7.516-3.736-1.656-2.577-1.809-5.95-1-7.721.717-1.572 1.48-2.5 2.092-3.245.548-.667.981-1.194 1.255-1.998.71-2.074.35-2.383-.148-2.81-1.31-1.122-2.017-3.271-1.65-5.003.315-1.49 1.351-2.57 2.917-3.04 1.43-.426 2.82-.12 3.92.862 1.495 1.333 2.196 3.684 1.784 5.99-.034.192-.025.61-.015 1.054.023 1.095.058 2.75-.445 4.35-.32 1.02-.99 1.694-1.638 2.347-.722.727-1.404 1.413-1.728 2.624-.33 1.229-.252 2.208.225 2.829.54.704 1.481.85 2.175.85 1.012 0 1.518-.826 2.231-2.187.613-1.172 1.308-2.5 2.77-2.5 1.378 0 2.342 1.58 2.342 3.845 0 1.806-.616 3.6-1.689 4.923-.95 1.17-2.743 2.566-5.883 2.566z"/>
        <path fill="#000" d="M146.135 54.774a1.11 1.11 0 1 1-2.219-.001 1.11 1.11 0 0 1 2.22.001M89.674 112.39c-4.169 0-7.69 7.174-7.69 15.665s3.521 15.664 7.69 15.664c4.17 0 7.69-7.173 7.69-15.664 0-8.49-3.52-15.665-7.69-15.665m0 32.83c-5.153 0-9.19-7.54-9.19-17.165s4.037-17.165 9.19-17.165 9.19 7.54 9.19 17.165-4.037 17.164-9.19 17.164M113.254 93.337a.75.75 0 0 1-.08-1.496l12.333-1.333a.755.755 0 0 1 .827.665.752.752 0 0 1-.665.827l-12.333 1.333a.763.763 0 0 1-.082.004M70.053 104.347a.748.748 0 0 1-.654-1.114c3.843-6.922 7.663-15.172 7.13-16.428-.402-.84-4.364-3.639-20.962-12.196l-1.387-.716c-3.648-1.897-15.44-5.041-21.558-5.041-5.839 0-21.15 6.358-21.304 6.423a.751.751 0 0 1-.578-1.385c.64-.267 15.744-6.538 21.882-6.538 6.067 0 18.06 3.03 22.25 5.21l1.382.715c14.583 7.517 20.85 11.25 21.628 12.883 1.164 2.439-5.195 14.242-7.173 17.8a.747.747 0 0 1-.656.387"/>
    </g>
</svg>
