<svg xmlns="http://www.w3.org/2000/svg" width="320" height="155" viewBox="0 0 320 155">
    <g fill="none" fill-rule="evenodd">
        <path fill="#F5F5F5" d="M51.103 13.811h8.007v10.142h-8.007z"/>
        <path stroke="#BDBDBD" stroke-linecap="round" stroke-linejoin="round" stroke-width="2" d="M291.317 24.488l9.074-9.609h21.353l9.075 9.609M291.317 62.922V24.488M259.822 62.922h31.495M259.822 133.918V62.922M251.281 133.918h8.541M-140 134.452h41.637l-.534-50.178h40.036V35.698h44.84V79.47h5.338V56.516l6.405-7.473h18.15l7.473 7.473v77.936h17.082V23.42h10.676V13.278h22.42V23.42h12.812v109.43h11.743"/>
        <path fill="#F5F5F5" d="M5.73 66.125h5.936v16.014H5.73zM14.206 66.125h5.936v16.014h-5.936zM5.73 88.011h5.936v16.014H5.73zM14.206 88.011h5.936v16.014h-5.936zM5.73 110.431h5.936v16.014H5.73zM14.206 110.431h5.936v16.014h-5.936zM265.16 70.395h4.836v16.014h-4.836zM232.598 102.957h4.836v10.142h-4.836zM224.591 102.957h4.836v10.142h-4.836zM232.598 119.505h4.836v10.142h-4.836zM224.591 119.505h4.836v10.142h-4.836zM273.135 70.395h4.836v16.014h-4.836zM265.16 92.281h4.836v16.014h-4.836zM273.135 92.281h4.836v16.014h-4.836zM265.16 114.701h4.836v16.014h-4.836zM273.135 114.701h4.836v16.014h-4.836zM54.306 44.238h4.27v12.811h-4.27zM63.915 16.48h4.27v5.338h-4.27zM54.306 70.395h4.27v12.811h-4.27zM54.306 93.883h4.27v12.811h-4.27zM40.961 23.954h10.142v110.498H40.961zM281.708 63.456h10.142v70.996h-10.142zM240.605 109.363h10.142v25.089h-10.142zM240.605 100.822h7.473v8.541h-7.473zM63.381 30.893h6.165v16.014h-6.165zM63.381 55.982h6.165v16.014h-6.165zM63.381 79.47h6.165v16.014h-6.165zM74.831 30.893h6.165v16.014h-6.165zM74.831 55.982h6.165v16.014h-6.165zM74.831 79.47h6.165v16.014h-6.165zM74.831 104.025h6.165v16.014h-6.165zM63.381 104.025h6.165v16.014h-6.165zM300.391 31.961h5.044v16.014h-5.044zM309.76 31.961h5.044v16.014h-5.044zM300.391 57.05h5.044v16.014h-5.044zM309.76 57.05h5.044v16.014h-5.044zM300.391 80.537h5.044v16.014h-5.044zM309.76 80.537h5.044v16.014h-5.044zM300.391 105.093h5.044v16.014h-5.044zM309.76 105.093h5.044v16.014h-5.044z"/>
        <path stroke="#BDBDBD" stroke-linecap="round" stroke-linejoin="round" stroke-width="2" d="M251.281 133.384V108.83h-3.203v-8.007l-6.405-6.406M241.673 94.416h-15.48l-6.94 6.94v32.028M62.313 13.278V2.068M311.068 14.879V1M7.331 49.043V30.359"/>
        <g transform="translate(94.342 82.139)">
            <path fill="#FFF" d="M32.028 28.292S20.285 26.69 22.42 19.75c2.135-6.94 10.142-13.345 20.285-14.947 10.142-1.601 33.63 1.068 37.366 2.67 3.737 1.6 17.616 9.608 19.217 21.885 1.602 12.278-44.306 1.068-44.306 1.068l-14.946 5.872s-17.616-3.203-16.015-6.94c1.602-3.736 8.007-1.067 8.007-1.067z"/>
            <path fill="#F5F5F5" d="M52.313 41.103s-17.082-2.669-19.217 14.413C34.698 78.47 57.945 71.06 57.945 71.06s5.044-.064 6.646-4.334c1.601-4.27-5.872-25.623-12.278-25.623zM9.139 38.237s-5.872 0-5.91 11.583c-.037 11.584 1.655 11.792 2.413 12.486.758.694 12.673 2.135 14.99.62 2.316-1.517 2.322-4.74 2.322-4.74l-9.075-16.549-4.74-3.4z"/>
            <path fill="#000" d="M.705 41.637a.534.534 0 0 1-.534-.507 20.375 20.375 0 0 1 2.38-11.055 15.01 15.01 0 0 1 8.691-7.159 13.04 13.04 0 0 1 4.772-.496.536.536 0 0 1-.09 1.068 11.957 11.957 0 0 0-4.388.432 13.932 13.932 0 0 0-8.056 6.657 19.313 19.313 0 0 0-2.247 10.478.534.534 0 0 1-.507.56l-.021.022z"/>
            <path fill="#EE596F" fill-rule="nonzero" d="M128.648 37.842a7.639 7.639 0 0 0-.742-.886 4.804 4.804 0 0 0-.86-1.404c-4.356-5.12-11.055-6.353-17.397-7.041-3.517-.385-7.265 0-10.702-.79-3.694-.85-7.287-1.762-11.056-2.253-7.681-1.004-15.421-.913-23.145-.737a77.253 77.253 0 0 0-12.129.993 25.121 25.121 0 0 0-3.8.235c-.828.123-3.4 1.004-5.013.822a3.827 3.827 0 0 0-1.137-.534 1.068 1.068 0 0 1-.107-.208 1.948 1.948 0 0 0-.39-.95c.257-1.762.342-3.55.535-5.338.267-2.642 1.067-3.972 1.601-6.577.262-.101 3.299-4.372 11.263-5.162 2.67-.266 5.338-.533 8.008-.71a43.383 43.383 0 0 1 17.898 2.59c.42.164.883.181 1.313.048 1.03.736 2.723 1.115 3.545 2.135 1.804 2.231 4.078.49-.23-2.579-8.391-5.978-15.865-7.782-25.196-8.327-5.54-.326-10.953.133-16.435-.123-5.04-.235-15.892 5.514-15.87 6.406-1.068.651-8.542 10.82-8.542 11.867-.624.096-.763 3.053-3.806 3.565-.4.182-.779-.17-.955.15a2.557 2.557 0 0 0-1.126-.358C5.808 22.174 1.217 32.36.742 38.376c-.23 2.871 2.669 3.154 3.486.41.534-1.745 2.055-2.508 3.865-1.371.42.422.814.87 1.18 1.34.342.29.76.475 1.206.533-.08.753.215 1.498.79 1.991.138 2.461.08 4.911 0 7.388-.091 2.21-.043 4.522 1.067 6.502 1.917 3.342 6.064 4.052 10.11 4.228a2.135 2.135 0 0 0 1.655.854l4.997.256c.213.15 1.964.208 2.242.272 3.544.796 2.135-.752 1.986-2.418-.043-.443-.177-2.546-.155-3.261.064-2.226 1.564-7.057 1.777-7.511a17.429 17.429 0 0 1 5.456-6.891c3.998-3.006 8.007-3.011 9.608-1.602 2.424.795 4.148 9.16 4.623 11.093.961 3.934 1.954 7.89 3.582 11.61 3.15 7.201 11.034 7.244 17.706 7.447.278 0 6.017.24 8.621.533 3.78.406 7.474-.261 11.237-.192 3.763.07 7.516 1.18 11.365.961 3.849-.219 7.713.032 11.482-.534a14.947 14.947 0 0 0 8.68-4.633c.688-.732 2.583-1.1 2.722-1.9.096-.075 1.292-2.856 1.943-4.084 1.324-2.488 1.281-5.338 1.394-8.157.163-4.9-1.52-9.682-4.72-13.398zm-89.6-20.85c-.299 2.188 0 5.914-.625 6.544-.944.57-4.414 1.601-13.782-1.495a7.938 7.938 0 0 1 .202-4.073c.716-1.948 2.328-3.737 3.86-5.093a14.413 14.413 0 0 1 9.181-3.736c.534 0 1.308.09 1.532.656.225.566 0 .93 0 2.136-.33 1.665-.138 3.373-.368 5.06z"/>
            <ellipse cx="79.046" cy="12.486" fill="#000" rx="1.751" ry="1.756"/>
            <ellipse cx="55.943" cy="12.486" fill="#000" rx="1.751" ry="1.756"/>
            <ellipse cx="70.335" cy="37.479" fill="#FFF" stroke="#000" stroke-linecap="round" stroke-linejoin="round" stroke-width=".5" rx="4.975" ry="4.212"/>
            <ellipse cx="126.683" cy="41.69" fill="#FFF" rx="3.769" ry="3.785"/>
            <path fill="#000" d="M129.107 38.925a.534.534 0 0 1-.534-.448c-.326-.694-4.078-4.698-5.589-5.573-6.406-3.737-16.222-3.678-19.073-3.582a.534.534 0 1 1 0-1.068c2.92-.106 12.982-.138 19.65 3.737 1.26.731 6.149 5.445 6.112 6.406a.534.534 0 0 1-.566.528z"/>
            <path fill="#000" d="M119.819 38.29a.534.534 0 0 1-.374-.155c-2.45-2.407-6.828-5.685-11.103-6.982a.534.534 0 0 1 .31-1.02c4.462 1.356 9.01 4.751 11.54 7.244a.534.534 0 0 1-.373.913zM70.126 31.89a.534.534 0 0 1-.25-.064c-3.684-1.933-10.308-3.534-14.798-3.593a.534.534 0 0 1 0-1.068c4.634.049 11.493 1.714 15.283 3.737a.534.534 0 0 1-.25 1.004l.015-.016z"/>
            <path fill="#000" fill-rule="nonzero" d="M127.244 45.63a8.167 8.167 0 0 1-1.1-.08c-2.253-.31-4.441-2.312-4.11-4.804a4.425 4.425 0 0 1 5.285-3.572l.186.048c1.72.438 3.854.977 3.854 4.548a3.96 3.96 0 0 1-1.19 2.872 4.201 4.201 0 0 1-2.925.988zm-.87-7.473a3.342 3.342 0 0 0-1.853.592 3.203 3.203 0 0 0-1.425 2.167c-.245 1.831 1.49 3.369 3.203 3.604 1.42.197 2.482 0 3.16-.63a2.92 2.92 0 0 0 .849-2.06c0-2.745-1.415-3.108-3.048-3.519l-.192-.048a2.75 2.75 0 0 0-.7-.133l.006.027zM70.67 42.224a6.219 6.219 0 0 1-4.803-2.028 4.804 4.804 0 0 1-.534-5.184c.816-1.649 3.923-2.236 4.644-2.242h.027c3.47 0 5.637 1.575 5.94 4.324a4.377 4.377 0 0 1-1.008 3.507c-.945 1.036-2.456 1.623-4.265 1.623zm-.672-8.38c-.614 0-3.176.603-3.694 1.644a3.737 3.737 0 0 0 .39 4.02 5.231 5.231 0 0 0 3.998 1.649c1.506 0 2.733-.449 3.465-1.266.621-.74.892-1.713.742-2.669-.331-2.791-2.835-3.379-4.9-3.379z"/>
            <path fill="#000" d="M19.676 20.52a.534.534 0 0 1-.464-.796c3.838-6.763 9.336-14.845 17.882-17.38C40.97 1.19 52.436-.038 56.444.111h.39c4.452.155 13.72.475 24.235 5.338 1.538.71 6.796 3.454 9.876 8.899a.536.536 0 0 1-.929.534c-2.317-4.1-6.368-7.052-9.411-8.477-10.319-4.773-19.441-5.093-23.824-5.242h-.39c-3.854-.128-15.288 1.067-19.014 2.188-8.183 2.43-13.521 10.297-17.258 16.885a.534.534 0 0 1-.443.283z"/>
            <path fill="#000" d="M99.406 28.233a.534.534 0 0 1-.486-.31c-2.002-4.27-4.27-9.074-8.087-12.33-3.598-3.049-7.735-4.98-13.842-6.46a53.413 53.413 0 0 0-9.486-1.126h-.245c-6.886-.363-22.954-.24-23.664 8.755a82.854 82.854 0 0 1-.181 2.05c-.225 2.402-.48 5.13-.214 7.382a.537.537 0 0 1-1.068.123c-.277-2.365 0-5.152.209-7.607.064-.7.128-1.383.176-2.034.315-4.11 3.96-10.836 24.784-9.742h.24c3.257.097 6.498.487 9.684 1.164 6.278 1.521 10.548 3.523 14.28 6.683 3.992 3.38 6.314 8.328 8.364 12.689a.534.534 0 0 1-.48.758l.016.005zM32.648 61.67a.534.534 0 0 1-.155 0c-4.35-1.318-8.354-1.254-12.988-1.179h-.48a9.406 9.406 0 0 1-3.892-.475 6.491 6.491 0 0 1-3.459-4.137 18.267 18.267 0 0 1-.63-5.21l-.149-6.352c-.043-1.81-.09-3.86-.95-5.536-.753-1.468-2.466-2.786-4.17-2.333a.534.534 0 0 1-.271-1.03c2.242-.592 4.452 1.041 5.391 2.877.94 1.837 1.02 4.073 1.068 6l.15 6.353c-.042 1.656.152 3.31.576 4.91a5.434 5.434 0 0 0 2.855 3.481 8.584 8.584 0 0 0 3.46.39h.48c4.724-.075 8.802-.144 13.313 1.222a.54.54 0 0 1-.155 1.068l.006-.048zM106.762 71.488c-3.737 0-7.474-.209-11.152-.411l-22.329-1.244c-3.139-.176-6.694-.374-9.753-1.938-5.92-3.027-8.204-10.094-9.074-15.48a82.23 82.23 0 0 1-.305-2.05 34.633 34.633 0 0 0-1.243-6.091c-.566-1.687-1.938-4.714-4.805-6.07a7.116 7.116 0 0 0-8.6 2.296.534.534 0 0 1-.875-.609 8.22 8.22 0 0 1 9.94-2.669c2.375 1.132 4.27 3.508 5.338 6.694a35.482 35.482 0 0 1 1.286 6.278c.096.678.193 1.356.305 2.028.832 5.146 2.989 11.878 8.509 14.701 2.855 1.463 6.293 1.655 9.325 1.826l22.33 1.244c7.916.438 16.104.897 23.989-.763a18.822 18.822 0 0 0 4.719-1.543c3.443-1.783 5.508-5.06 6.64-7.473 1.452-3.134 2.231-10.495 1.51-14.328a.543.543 0 1 1 1.068-.197c.748 3.992-.074 11.69-1.601 14.946-1.201 2.59-3.406 6.075-7.116 8.007a19.804 19.804 0 0 1-4.99 1.64 63.395 63.395 0 0 1-13.116 1.206z"/>
            <path fill="#000" d="M128.071 51.304a.534.534 0 0 1-.256-.064c-5.76-3.133-13.03-2.247-18.875-1.532a50.087 50.087 0 0 1-6.406.534c-2.135-.037-7.97-1.132-13.612-2.194-4.692-.886-9.123-1.719-10.34-1.724-5.99 0-13.425-.048-18.246 3.8a.534.534 0 1 1-.667-.832c5.114-4.09 12.774-4.057 18.918-4.036 1.319 0 5.59.812 10.538 1.74 5.338 1.004 11.391 2.136 13.435 2.178a48.737 48.737 0 0 0 6.24-.533c5.995-.732 13.458-1.64 19.517 1.654a.534.534 0 0 1-.257 1.004l.011.005zM32.002 56.338a.534.534 0 0 1-.166 0 108.144 108.144 0 0 0-13.799-3.496.534.534 0 0 1-.32-.193c-.993-1.249-1.222-3.635-1.479-6.405-.218-2.344-.448-4.762-1.174-6.635l-.422-1.068a17.835 17.835 0 0 1-1.478-5.077 9.315 9.315 0 0 1 3.79-8.242.534.534 0 0 1 .619.87 8.231 8.231 0 0 0-3.347 7.282 17.05 17.05 0 0 0 1.404 4.767c.144.357.288.715.427 1.067.774 2.007 1.014 4.506 1.238 6.94.225 2.434.433 4.601 1.143 5.674 4.645.866 9.23 2.032 13.724 3.491a.54.54 0 1 1-.166 1.068l.006-.043z"/>
            <path fill="#000" d="M22.628 33.208a.534.534 0 0 1-.165 0 11.45 11.45 0 0 0-4.703-.502.537.537 0 1 1-.112-1.067 12.48 12.48 0 0 1 5.146.534.54.54 0 0 1-.166 1.067v-.032zM38.68 23.012h-.064a.534.534 0 0 1-.47-.592c.518-3.875.763-7.781.731-11.69a.534.534 0 1 1 1.068 0 84.048 84.048 0 0 1-.737 11.818.534.534 0 0 1-.528.464z"/>
            <path fill="#000" d="M35.68 24.726a43.527 43.527 0 0 1-5.178-.411c-1.831-.219-3.913-.47-5.632-1.601a3.432 3.432 0 0 1-1.35-1.468c-.534-1.17 0-2.44.384-3.294A16.75 16.75 0 0 1 38.7 8.594a.534.534 0 0 1 0 1.068 15.662 15.662 0 0 0-13.836 8.754c-.507 1.068-.625 1.826-.369 2.408.214.42.547.769.956 1.003 1.51.988 3.459 1.223 5.173 1.426 2.248.352 4.528.46 6.8.32a.534.534 0 0 1 .102 1.062c-.609.064-1.228.091-1.847.091zM48.25 72.427a22.553 22.553 0 0 1-5-.651c-4.229-.945-10.517-6.01-10.517-16.095 0-8.754 6.102-12.699 9.737-14.274 2.717-1.174 5.6-1.2 9.373-.864.28.033.486.279.47.56a.534.534 0 0 1-.582.486c-3.603-.326-6.341-.304-8.85.78-3.395 1.467-9.075 5.15-9.075 13.291 0 9.46 5.787 14.183 9.678 15.054 3.374.752 5.375.816 8.237.25 2.525-.496 7.142-3.88 6.806-7.686a.536.536 0 1 1 1.067-.097c.411 4.655-4.847 8.275-7.66 8.83-1.21.26-2.445.4-3.683.416z"/>
            <path fill="#000" d="M51.78 72.064a.534.534 0 0 1 0-1.068c6.821 0 10.676-1.26 11.476-3.736a.534.534 0 0 1 1.014.325c-.966 3.011-5.05 4.48-12.49 4.48zM15.294 64.084a59.317 59.317 0 0 1-7.234-.502c-2.001-.256-3.32-.956-3.928-2.077-3.32-6.15-.764-17.514.533-20.957.39-1.02 1.698-2.498 3.257-2.429a.534.534 0 1 1 0 1.068c-.956-.032-1.927.987-2.216 1.745-1.211 3.203-3.736 14.322-.603 20.072.433.806 1.484 1.318 3.123 1.526 2.754.353 7.932.838 11.674.139.881-.165 2.28-1.74 2.45-2.765a.541.541 0 0 1 1.068.176c-.224 1.335-1.9 3.38-3.304 3.64a26.69 26.69 0 0 1-4.82.364z"/>
            <path fill="#000" d="M8.071 58.98a4.345 4.345 0 0 1-1.553-.325.535.535 0 0 1 .384-.998 2.311 2.311 0 0 0 1.975.053c.966-.534 1.265-2.135 1.41-2.893.026-.15.053-.278.074-.369.525-2.274.753-4.606.678-6.94a.534.534 0 0 1 1.068 0c.077 2.422-.16 4.842-.705 7.202 0 .08-.037.187-.064.315-.17.923-.534 2.85-1.938 3.63a2.669 2.669 0 0 1-1.329.325zM93.416 60.956c-.47 0-.934 0-1.393-.06-5.21-.432-12.155-4.195-15.165-8.215a.534.534 0 0 1 .854-.64c2.802 3.737 9.534 7.388 14.413 7.794 4.073.336 8.893-.95 11.21-3a.535.535 0 0 1 .71.8c-2.253 1.986-6.62 3.32-10.629 3.32zM100.59 28.762c-2.204 0-8.684-1.26-10.814-1.927-1.495-.465-9.972-.972-12.812-1.11-4.714-.28-9.44-.296-14.156-.049-1.602.064-3.395.134-5.696.208-3.62.112-7.105.347-9.955 2.002a.534.534 0 0 1-.534-.923c3.07-1.783 6.7-2.029 10.457-2.136 2.295-.069 4.11-.144 5.685-.202a128.05 128.05 0 0 1 14.253.048c.112 0 11.151.533 13.094 1.158 2.023.63 8.418 1.868 10.5 1.879a.534.534 0 0 1 0 1.068l-.021-.016z"/>
            <path fill="#000" fill-rule="nonzero" d="M46.116 64.836a4.858 4.858 0 0 1-1.954-.395 5.904 5.904 0 0 1-3.107-3.736 11.488 11.488 0 0 1-.379-4.767c.46-3.918 3.08-6.294 4.804-6.502 1.725-.208 3.011-.283 4.554.63 1.601.94 3.203 2.514 2.941 7.12a8.38 8.38 0 0 1-.534 2.638 8.466 8.466 0 0 1-3.117 4.067c-.955.62-2.07.948-3.208.945zM47.15 50.35c-.518.008-1.035.047-1.548.117-1.169.144-3.459 2.135-3.865 5.568a10.436 10.436 0 0 0 .337 4.324 4.847 4.847 0 0 0 2.52 3.101 4.42 4.42 0 0 0 4.126-.491 7.527 7.527 0 0 0 2.706-3.566 7.308 7.308 0 0 0 .475-2.3c.208-4.025-1.04-5.339-2.418-6.145a4.356 4.356 0 0 0-2.333-.608z"/>
            <path fill="#000" d="M74.173 25.292a.534.534 0 0 1-.534-.46 45.165 45.165 0 0 0-1.068-5.823c-.037-.139-.08-.299-.133-.486-.48-1.81-1.49-5.578-3.689-8.13a.534.534 0 0 1 .806-.699c2.36 2.738 3.406 6.662 3.913 8.54l.128.476c.501 1.96.872 3.953 1.11 5.963a.534.534 0 0 1-.453.603l-.08.016zM62.594 37.441a.534.534 0 0 1-.277-.08c-4.27-2.589-8.541-5.3-12.684-8.05a.534.534 0 0 1 .588-.891 359.974 359.974 0 0 0 12.65 8.007.534.534 0 0 1-.277.988v.026zM34.82 45.646a.534.534 0 0 1-.502-.7c.465-1.398.369-2.903.262-4.494 0-.39-.048-.78-.07-1.164a25.292 25.292 0 0 1 2.264-11.557.534.534 0 0 1 .972.443 24.219 24.219 0 0 0-2.168 11.066c0 .38.043.758.064 1.143.107 1.601.214 3.298-.315 4.9a.534.534 0 0 1-.507.363z"/>
        </g>
    </g>
</svg>
