<svg xmlns="http://www.w3.org/2000/svg" width="1126" height="289" viewBox="0 0 1126 289">
    <g fill="none" fill-rule="evenodd">
        <g transform="translate(1 1)">
            <path fill="#F5F5F5" d="M78 157h14v94H78zM358 24h15v19h-15z"/>
            <path stroke="#BDBDBD" stroke-linecap="round" stroke-linejoin="round" stroke-width="2" d="M882 148h73M882 44v104M808 44l17-18h40l17 18M808 116V44M749 116h59M749 249V116M733 249h16M0 250h78l-1-94h75V65h84v82h10v-43l12-14h34l14 14v146h32V42h20V23h42v19h24v205h22"/>
            <path fill="#F5F5F5" d="M182 78h11.12v30H182zM197.88 78H209v30h-11.12zM273 122h11.12v30H273zM247 105h14v145h-14zM153 66h14v184h-14zM288.88 122H300v30h-11.12zM273 163h11.12v30H273zM288.88 163H300v30h-11.12zM273 205h11.12v30H273zM288.88 205H300v30h-11.12zM759 130h9.06v30H759zM698 191h9.06v19H698zM683 191h9.06v19H683zM698 222h9.06v19H698zM683 222h9.06v19H683zM773.94 130H783v30h-9.06zM759 171h9.06v30H759zM773.94 171H783v30h-9.06zM759 213h9.06v30H759zM773.94 213H783v30h-9.06zM219 101h8v24h-8zM219 150h8v24h-8zM219 194h8v24h-8zM364 81h8v24h-8zM382 29h8v10h-8zM364 130h8v24h-8zM364 174h8v24h-8zM182 125h11.12v30H182zM197.88 125H209v30h-11.12zM182 169h11.12v30H182zM197.88 169H209v30h-11.12zM118.8 169H130v30h-11.2zM98 169h11.2v30H98zM134.8 169H146v30h-11.2zM118.8 213H130v30h-11.2zM98 213h11.2v30H98zM134.8 213H146v30h-11.2zM182 210h11.12v30H182zM197.88 210H209v30h-11.12zM339 43h19v207h-19zM862 44h19v206h-19zM790 117h19v133h-19zM713 203h19v47h-19zM713 187h14v16h-14zM935 149h19v101h-19zM381 56h11.55v30H381zM381 103h11.55v30H381zM381 147h11.55v30H381zM402.45 56H414v30h-11.55zM402.45 103H414v30h-11.55zM402.45 147H414v30h-11.55zM402.45 193H414v30h-11.55zM381 193h11.55v30H381zM825 58h9.45v30H825zM842.55 58H852v30h-9.45zM825 105h9.45v30H825zM842.55 105H852v30h-9.45zM825 149h9.45v30H825zM842.55 149H852v30h-9.45zM825 195h9.45v30H825zM842.55 195H852v30h-9.45zM897 162h10.15v30H897zM915.85 162H926v30h-10.15zM897 208h10.15v30H897zM915.85 208H926v30h-10.15z"/>
            <path stroke="#BDBDBD" stroke-linecap="round" stroke-linejoin="round" stroke-width="2" d="M733 248v-46h-6v-15l-12-12M715 175h-29l-13 13v60M379 23V2M845 26V0M276 90V55M955 148v101h169v-1"/>
            <path fill="#F5F5F5" stroke="#BDBDBD" stroke-width="2" d="M42.91 229.08c-10.493 0-19-8.507-19-19 0 0 7.85-55.18 17.45-55.18h3c9.6 0 17.45 55.18 17.45 55.18 0 10.454-8.446 18.945-18.9 19z"/>
            <path stroke="#BDBDBD" stroke-linecap="round" stroke-linejoin="round" stroke-width="2" d="M43.29 249v-37.12"/>
            <rect width="45.51" height="63.35" x="137.43" y="149.93" fill="#F5F5F5" stroke="#BDBDBD" stroke-width="2" rx="18.98"/>
            <path stroke="#BDBDBD" stroke-linecap="round" stroke-linejoin="round" stroke-width="2" d="M160.43 254.57v-59.13"/>
        </g>
        <g transform="translate(441 154)">
            <path fill="#FFF" d="M59 52s-22-3-18-16S60 11 79 8s63 2 70 5 33 18 36 41-83 2-83 2L74 67s-33-6-30-13 15-2 15-2z"/>
            <path fill="#F5F5F5" d="M97 76s-32-5-36 27c3 43 46.55 29.12 46.55 29.12S117 132 120 124c3-8-11-48-23-48zM16.12 70.63s-11 0-11.07 21.7c-.07 21.7 3.1 22.09 4.52 23.39 1.42 1.3 23.74 4 28.08 1.16S42 108 42 108L25 77l-8.88-6.37z"/>
            <path stroke="#000" stroke-linecap="round" stroke-linejoin="round" stroke-width="2" d="M.32 76a37.37 37.37 0 0 1 4.34-20.17 27.18 27.18 0 0 1 15.69-12.94 23.59 23.59 0 0 1 8.58-.85"/>
            <path fill="#EE596F" fill-rule="nonzero" d="M240 69.89a14.31 14.31 0 0 0-1.39-1.66A9 9 0 0 0 237 65.6c-8.16-9.59-20.71-11.9-32.59-13.19-6.59-.72-13.61 0-20.05-1.48-6.92-1.59-13.65-3.3-20.71-4.22-14.39-1.88-28.89-1.71-43.36-1.38a144.72 144.72 0 0 0-22.72 1.86 47.06 47.06 0 0 0-7.12.44c-1.55.23-6.37 1.88-9.39 1.54a7.17 7.17 0 0 0-2.13-1 2 2 0 0 1-.2-.39A3.65 3.65 0 0 0 78 46c.48-3.3.64-6.65 1-10 .5-4.95 2-7.44 3-12.32.49-.19 6.18-8.19 21.1-9.67 5-.5 10-1 15-1.33a81.27 81.27 0 0 1 33.53 4.85 3.72 3.72 0 0 0 2.46.09c1.93 1.38 5.1 2.09 6.64 4 3.38 4.18 7.64.92-.43-4.83-15.72-11.2-29.72-14.58-47.2-15.6-10.38-.61-20.52.25-30.79-.23-9.44-.44-29.77 10.33-29.73 12-2 1.22-16 20.27-16 22.23-1.17.18-1.43 5.72-7.13 6.68-.75.34-1.46-.32-1.79.28a4.79 4.79 0 0 0-2.11-.67C9.88 40.54 1.28 59.62.39 70.89c-.43 5.38 5 5.91 6.53.77 1-3.27 3.85-4.7 7.24-2.57a27.49 27.49 0 0 1 2.21 2.51 4.37 4.37 0 0 0 2.26 1 4.32 4.32 0 0 0 1.48 3.73c.26 4.61.15 9.2 0 13.84-.17 4.14-.08 8.47 2 12.18 3.59 6.26 11.36 7.59 18.94 7.92a4 4 0 0 0 3.1 1.6l9.36.48c.4.28 3.68.39 4.2.51 6.64 1.49 4-1.41 3.72-4.53-.08-.83-.33-4.77-.29-6.11.12-4.17 2.93-13.22 3.33-14.07a32.65 32.65 0 0 1 10.22-12.91c7.49-5.63 15-5.64 18-3 4.54 1.49 7.77 17.16 8.66 20.78 1.8 7.37 3.66 14.78 6.71 21.75 5.9 13.49 20.67 13.57 33.17 13.95.52 0 11.27.45 16.15 1 7.08.76 14-.49 21.05-.36 7.05.13 14.08 2.21 21.29 1.8 7.21-.41 14.45.06 21.51-1a28 28 0 0 0 16.26-8.68c1.29-1.37 4.84-2.06 5.1-3.56.18-.14 2.42-5.35 3.64-7.65 2.48-4.66 2.4-10 2.61-15.28a36.6 36.6 0 0 0-8.84-25.1zM72.15 30.83c-.56 4.1 0 11.08-1.17 12.26-1.77 1.07-8.27 3-25.82-2.8a14.87 14.87 0 0 1 .38-7.63c1.34-3.65 4.36-7 7.23-9.54a27 27 0 0 1 17.2-7c1 0 2.45.17 2.87 1.23.42 1.06 0 1.74 0 4-.62 3.12-.26 6.32-.69 9.48z"/>
            <ellipse cx="147.08" cy="22.39" fill="#000" rx="3.28" ry="3.29"/>
            <ellipse cx="103.8" cy="22.39" fill="#000" rx="3.28" ry="3.29"/>
            <ellipse cx="130.76" cy="69.21" fill="#FFF" stroke="#000" stroke-linecap="round" stroke-linejoin="round" stroke-width=".5" rx="9.32" ry="7.89"/>
            <ellipse cx="236.32" cy="77.1" fill="#FFF" rx="7.06" ry="7.09"/>
            <path stroke="#000" stroke-linecap="round" stroke-linejoin="round" stroke-width="2" d="M193.63 52.93c11.36-.4 26.42 1.13 36.27 6.84 3 1.74 11 10.18 11 11.15M202.25 56.4c8.33 2.53 16.72 8.9 21.21 13.32M102.19 50.89c8.22.08 20.9 3 28.18 6.85"/>
            <path stroke="#000" stroke-linecap="round" stroke-linejoin="round" stroke-width="2" d="M244.08 77.27c0-6.15-3.59-6.83-6.82-7.65a7.29 7.29 0 0 0-8.66 5.85c-.52 3.91 3 7.34 6.84 7.87 8.95 1.22 8.64-6.07 8.64-6.07zM140.26 68.61c-.67-6-6.16-7.22-10.18-7.21-1.29 0-6.57 1.13-7.81 3.64a8 8 0 0 0 .87 8.62 10.76 10.76 0 0 0 8.25 3.45c5.73 0 9.45-3.22 8.87-8.5zM168.52 26.4c-4.93-8.71-13.29-14.05-18.05-16.26C130.37.84 112.84.49 104.72.2c-7.42-.26-28.81 2-35.93 4.14-15 4.46-25.15 18.41-32.92 32.1"/>
            <path stroke="#000" stroke-linecap="round" stroke-linejoin="round" stroke-width="2" d="M78.95 48.15c-.65-5.54.31-12.3.73-17.86 1.54-20.14 40.55-17.57 45.83-17.3 6.05.195 12.073.914 18 2.15 9.86 2.39 18.58 5.74 26.34 12.31 7.18 6.09 11.4 14.9 15.41 23.44M9.58 66.3c3.55-.94 7.28 1.6 9 4.88 1.72 3.28 1.8 7.12 1.89 10.8l.28 11.9a33.53 33.53 0 0 0 1.13 9.48c1 3 3 5.9 5.91 7.14 2.33 1 5 .84 7.48.8 8.77-.14 16.54-.3 24.93 2.24M72.2 74.29a14.33 14.33 0 0 1 17.36-4.63c4.71 2.24 7.81 7 9.47 12 1.66 5 2.1 10.24 2.94 15.4 1.82 11.2 6.41 23.13 16.47 28.28 5.45 2.79 11.76 3.18 17.87 3.52l41.83 2.33c15.1.84 30.4 1.67 45.2-1.45a35.58 35.58 0 0 0 9.09-3c5.84-3 10.11-8.53 12.89-14.51 2.78-5.98 4.29-20.1 2.91-27.44"/>
            <path stroke="#000" stroke-linecap="round" stroke-linejoin="round" stroke-width="2" d="M238.93 94.11c-15.47-8.41-36.05-1.81-47.79-2-7.31-.12-39.78-7.32-44.89-7.34-11.57 0-25.56-.05-34.81 7.34M31.35 47.06a16.48 16.48 0 0 0-6.69 14.54c.34 3.92 2.08 7.55 3.49 11.21 3 7.69 1.64 20.15 4.82 24.14a203.08 203.08 0 0 1 26 6.58M32.17 59.22a22.34 22.34 0 0 1 9.23 1M72.84 19.09a156.83 156.83 0 0 1-1.37 22M71.5 16.11a30.48 30.48 0 0 0-26.82 17c-.8 1.67-1.45 3.64-.71 5.34a5.56 5.56 0 0 0 2.16 2.31c3 1.94 6.61 2.41 10.12 2.83a59.6 59.6 0 0 0 13 .61M96 76c-7.29-.65-12.36-.5-17.07 1.54-5 2.18-17.64 9-17.64 25.82 0 17.69 10.88 27.38 18.91 29.17 6.76 1.51 10.63 1.5 15.85.47 5.22-1.03 14.24-7.67 13.55-15.47M96 133c10 0 20.42-1.37 22.45-7.71M41.8 111.37c-.37 2.19-3.22 5.6-5.39 6-6.53 1.22-15.47.61-22.18-.25-2.5-.32-5.4-1.15-6.61-3.38C1.76 102.9 6.1 82.15 8.7 75.31c.67-1.76 2.87-4 5.13-3.91"/>
            <path stroke="#000" stroke-linecap="round" stroke-linejoin="round" stroke-width="2" d="M11.57 108c6.77 2.62 7.42-5.07 7.81-6.71a51.13 51.13 0 0 0 1.3-13.25M193.23 106.22c-4.56 4-13.93 6.52-21.74 5.87-9.51-.79-22.3-7.79-27.69-15M187.44 51.88c-4 0-16.13-2.37-20-3.56-3.16-1-21-2-24.28-2.12-17.23-.85-20-.22-37.27.3-6.57.2-13.43.58-19.12 3.88M92.21 93.6c-2.66-1.57-5.09-1.39-7.9-1-2.81.39-7.32 4.54-8.11 11.3a20.71 20.71 0 0 0 .67 8.51 10.16 10.16 0 0 0 5.27 6.43 9.34 9.34 0 0 0 8.68-1 15 15 0 0 0 5.45-7.15 14.67 14.67 0 0 0 1-4.63c.38-8.06-2.18-10.76-5.06-12.46zM128.53 17.82c4.71 5.46 6.6 13.78 7.36 16.52a85 85 0 0 1 2.05 11M92.52 53.09a749.662 749.662 0 0 0 23.73 15.06M68.79 51.36a46.37 46.37 0 0 0-4.15 21.19c.16 3.68.74 7.47-.42 11"/>
        </g>
    </g>
</svg>
