<svg xmlns="http://www.w3.org/2000/svg" width="264" height="60" viewBox="0 0 264 60">
    <g fill="#0A9AC9" fill-rule="nonzero">
        <path d="M34.417 27.547a4.415 4.415 0 0 1 4.341 5.298c-1.947 9.517-7.785 23.081-17.032 23.081-10.68 0-19.27-20.854-19.27-32.43 0-11.578 8.796-19.427 19.167-19.427 7.692 0 13.274 3.998 16.002 8.61a4.219 4.219 0 0 1-3.61 6.327 4.194 4.194 0 0 1-3.753-2.188c-1.227-2.286-3.773-4.684-8.64-4.684-4.993 0-10.596 3.561-10.61 11.376 0 6.966 5.131 10.998 10.684 10.998 4.847 0 7.496-2.413 8.83-4.748a4.464 4.464 0 0 1 3.89-2.213zM21.745 51.585a3.743 3.743 0 1 0 0-7.486 3.743 3.743 0 0 0 0 7.486zM55.83 30.849v-.074a10.115 10.115 0 0 1 10.208-10.248 9.92 9.92 0 0 1 6.868 2.453c.447.396.707.963.717 1.56a2.046 2.046 0 0 1-2.09 2.026 2.29 2.29 0 0 1-1.335-.446 6.215 6.215 0 0 0-4.194-1.673c-3.267 0-5.68 2.82-5.68 6.235v.073c0 3.488 2.413 6.275 5.886 6.275a6.544 6.544 0 0 0 4.38-1.742 1.894 1.894 0 0 1 3.155 1.472 1.751 1.751 0 0 1-.633 1.413 9.59 9.59 0 0 1-7.127 2.781A10.008 10.008 0 0 1 55.83 30.85zm31.45 10.135c-5.68 0-10.062-4.121-10.062-10.17v-.073c0-5.607 3.974-10.209 9.576-10.209 6.235 0 9.321 5.122 9.321 9.654a2.1 2.1 0 0 1-2.114 2.154H81.737c.49 3.194 2.747 4.974 5.641 4.974a7.045 7.045 0 0 0 4.64-1.707c.32-.276.732-.421 1.154-.407a1.766 1.766 0 0 1 1.78 1.82 1.962 1.962 0 0 1-.593 1.374 10.062 10.062 0 0 1-7.079 2.59zm4.454-11.617c-.299-2.894-2.006-5.16-4.974-5.16-2.747 0-4.68 2.114-5.087 5.16h10.061zm9.728-13.888a2.212 2.212 0 0 1 2.227-2.227 2.242 2.242 0 0 1 2.267 2.227v14.477l8.428-8.296a2.64 2.64 0 0 1 1.928-.98 1.962 1.962 0 0 1 1.962 2.04 2.546 2.546 0 0 1-.981 1.894l-5.195 4.788 5.94 7.76c.36.409.57.928.594 1.472a2.03 2.03 0 0 1-2.114 2.04 2.227 2.227 0 0 1-1.963-.98l-5.612-7.432-2.968 2.82v3.434a2.247 2.247 0 0 1-4.493 0l-.02-23.037zm22.198.187c0-1.335 1.114-2.188 2.561-2.188 1.447 0 2.56.853 2.56 2.188v.22c0 1.335-1.113 2.228-2.56 2.228s-2.56-.869-2.56-2.223v-.225zm.334 7.314a2.217 2.217 0 0 1 2.227-2.266 2.252 2.252 0 0 1 2.267 2.266v15.517a2.247 2.247 0 1 1-4.494 0V22.98zm10.032 7.869v-.074a10.115 10.115 0 0 1 10.209-10.248 9.92 9.92 0 0 1 6.868 2.453c.443.398.7.964.706 1.56a2.046 2.046 0 0 1-2.08 2.026 2.29 2.29 0 0 1-1.334-.446 6.215 6.215 0 0 0-4.195-1.673c-3.267 0-5.68 2.82-5.68 6.235v.073c0 3.488 2.413 6.275 5.886 6.275a6.544 6.544 0 0 0 4.381-1.742 1.894 1.894 0 0 1 3.155 1.472 1.751 1.751 0 0 1-.633 1.413 9.59 9.59 0 0 1-7.128 2.781 10.008 10.008 0 0 1-10.155-10.105zM63.404 44.742c0-1.335 1.114-2.188 2.56-2.188 1.448 0 2.562.853 2.562 2.188v.22c0 1.335-1.114 2.227-2.561 2.227-1.447 0-2.56-.892-2.56-2.227v-.22zm111.5 0c0-1.335 1.114-2.188 2.562-2.188 1.447 0 2.56.853 2.56 2.188v.22c0 1.335-1.113 2.227-2.56 2.227-1.448 0-2.561-.892-2.561-2.227v-.22zm-17.6-21.762a2.217 2.217 0 0 1 2.227-2.266 2.252 2.252 0 0 1 2.266 2.266v15.517a2.247 2.247 0 1 1-4.494 0V22.98zm10.017 7.869v-.074a10.115 10.115 0 0 1 10.208-10.248 9.92 9.92 0 0 1 6.868 2.453c.444.398.7.964.707 1.56a2.046 2.046 0 0 1-2.085 2.026 2.29 2.29 0 0 1-1.334-.446 6.215 6.215 0 0 0-4.195-1.673c-3.267 0-5.68 2.82-5.68 6.235v.073c0 3.488 2.413 6.275 5.886 6.275a6.544 6.544 0 0 0 4.381-1.742 1.894 1.894 0 0 1 3.154 1.472 1.751 1.751 0 0 1-.633 1.413 9.59 9.59 0 0 1-7.127 2.781 10.008 10.008 0 0 1-10.15-10.105zm21.732 4.057v-.074c0-4.243 3.287-6.304 8.09-6.304a16.385 16.385 0 0 1 5.268.815v-.49c0-2.787-1.707-4.269-4.862-4.269a11.646 11.646 0 0 0-4.341.78 2.522 2.522 0 0 1-.706.113 1.87 1.87 0 0 1-1.89-1.854 1.962 1.962 0 0 1 1.227-1.781 16.802 16.802 0 0 1 6.309-1.163c2.943 0 5.121.78 6.495 2.188 1.472 1.413 2.114 3.488 2.114 6.054v9.65a2.139 2.139 0 0 1-2.188 2.153c-1.3 0-2.187-.893-2.187-1.894v-.74a7.967 7.967 0 0 1-6.378 2.86c-3.664-.005-6.951-2.12-6.951-6.044zm13.436-1.413v-1.335a12.44 12.44 0 0 0-4.454-.78c-2.894 0-4.601 1.227-4.601 3.268v.073c0 1.894 1.672 2.973 3.821 2.973 2.973-.01 5.234-1.722 5.234-4.209v.01zm11.548 11.317a1.84 1.84 0 0 1-1.26-1.78 1.894 1.894 0 0 1 2.708-1.668 11.985 11.985 0 0 0 6.014 1.56c4.008 0 6.2-2.08 6.2-6.015v-1.51c-1.633 2.114-3.674 3.6-6.902 3.6-4.601 0-8.908-3.434-8.908-9.169v-.073c0-5.794 4.341-9.208 8.908-9.208 3.307 0 5.348 1.52 6.868 3.34v-.946a2.247 2.247 0 1 1 4.494.039v13.55c0 3.306-.854 5.754-2.487 7.387-1.781 1.781-4.528 2.635-8.055 2.635a16.94 16.94 0 0 1-7.58-1.742zm2.453-29.252a2.65 2.65 0 0 1-.3-1.153 1.555 1.555 0 0 1 1.56-1.575c.6-.023 1.156.313 1.414.854a3.12 3.12 0 0 0 3.007 1.707c1.594 0 2.487-.706 3.007-1.707.258-.54.81-.875 1.408-.854a1.555 1.555 0 0 1 1.565 1.575c-.011.402-.113.796-.3 1.153-1.074 1.893-3.04 2.968-5.68 2.968-2.64 0-4.606-1.08-5.68-2.968zm11.249 14.226v-.073c0-3.194-2.634-5.397-5.754-5.397-3.12 0-5.568 2.154-5.568 5.397v.073c0 3.194 2.487 5.396 5.568 5.396 3.08 0 5.754-2.237 5.754-5.406v.01zm11.067-6.804a2.217 2.217 0 0 1 2.227-2.266 2.252 2.252 0 0 1 2.267 2.266v15.517a2.247 2.247 0 0 1-4.494 0V22.98zm11.102 0a2.217 2.217 0 0 1 2.227-2.266 2.252 2.252 0 0 1 2.266 2.266v2.006c1.04-2.452 2.968-4.307 4.935-4.307a2.085 2.085 0 0 1 2.227 2.227 2.11 2.11 0 0 1-1.78 2.154c-3.194.554-5.397 3.007-5.397 7.648v5.794a2.242 2.242 0 0 1-2.266 2.227 2.212 2.212 0 0 1-2.227-2.227l.015-15.522zM156.97 15.666c0-1.335 1.113-2.188 2.56-2.188 1.448 0 2.561.853 2.561 2.188v.22c0 1.335-1.113 2.228-2.56 2.228-1.448 0-2.561-.869-2.561-2.223v-.225z"/>
    </g>
</svg>
