<svg xmlns="http://www.w3.org/2000/svg" width="60" height="60" viewBox="0 0 60 60">
    <path fill="#0A9AC9" fill-rule="nonzero" d="M45.786 27.24a4.994 4.994 0 0 0-4.35 2.476c-1.49 2.61-4.454 5.313-9.86 5.313-6.206 0-11.948-4.513-11.948-12.302 0-8.7 6.264-12.708 11.832-12.708 5.44 0 8.294 2.685 9.663 5.22a4.727 4.727 0 1 0 8.236-4.64C46.325 5.466 40.085 1 31.46 1 19.86 1 10 9.787 10 22.727S19.628 59 31.576 59c10.341 0 16.872-15.173 19.047-25.816a4.947 4.947 0 0 0-4.837-5.945zm-14.17 26.917a4.188 4.188 0 1 1 0-8.375 4.188 4.188 0 0 1 0 8.375z"/>
</svg>
