<svg xmlns="http://www.w3.org/2000/svg" width="80" height="57" viewBox="0 0 80 57">
    <g fill="#79C7E1" fill-rule="nonzero">
        <path d="M75.665 22.81h-.233a3.431 3.431 0 0 0-.28-2.138 3.45 3.45 0 0 0-3.14-1.974h-5.354a8.686 8.686 0 0 0-8.465 6.726h-4.112l-.391-5.896c-.201-3.035-2.753-5.412-5.809-5.412h-.314l2.022-5.863c.169-.49.593-.846 1.107-.93l5.902-.95a2.064 2.064 0 0 0 2.05 1.819h8.103c2.27 0 4.116-1.838 4.116-4.096C70.867 1.837 69.021 0 66.751 0H58.65a2.063 2.063 0 0 0-2.066 2.055v1.17l-6.386 1.029a4.521 4.521 0 0 0-3.564 2.99l-2.005 5.814-.2-1.48a3.077 3.077 0 0 0-3.044-2.65h-2.768a3.077 3.077 0 0 0-3.045 2.65l-.2 1.48-2.004-5.814a4.521 4.521 0 0 0-3.564-2.99l-6.386-1.03V2.056A2.063 2.063 0 0 0 21.35 0H13.25c-2.27 0-4.116 1.837-4.116 4.096 0 2.258 1.846 4.096 4.116 4.096h8.102a2.064 2.064 0 0 0 2.051-1.82l5.902.952c.514.082.938.439 1.107.93l2.022 5.862h-.314c-3.056 0-5.608 2.377-5.809 5.412l-.39 5.896h-4.113a8.687 8.687 0 0 0-8.465-6.726H7.989a3.45 3.45 0 0 0-3.14 1.974 3.43 3.43 0 0 0-.28 2.138h-.234C1.945 22.81 0 24.745 0 27.123v25.338c0 2.378 1.945 4.313 4.335 4.313h10.66c2.39 0 4.334-1.935 4.334-4.313V41.504l.011.012.035.037.005.005 5.614 5.358a6.554 6.554 0 0 0 4.545 1.818h20.922a6.554 6.554 0 0 0 4.545-1.818l5.614-5.358.005-.004.04-.043a.278.278 0 0 1 .006-.007v10.957c0 2.378 1.945 4.313 4.335 4.313h10.66c2.39 0 4.334-1.935 4.334-4.313V27.123c0-2.378-1.944-4.313-4.335-4.313zM59.708 3.11h7.043a.99.99 0 0 1 .991.986.99.99 0 0 1-.99.986h-7.043V3.11zM20.292 5.082h-7.043a.99.99 0 0 1-.991-.986.99.99 0 0 1 .99-.986H20.293v1.972zm-4.088 47.379c0 .664-.543 1.203-1.21 1.203H4.334c-.666 0-1.209-.54-1.209-1.203v-2.897l1.822 1.338a1.563 1.563 0 0 0 2.185-.328 1.55 1.55 0 0 0-.33-2.174L3.126 45.7v-4.41l1.822 1.338a1.563 1.563 0 0 0 2.185-.328 1.55 1.55 0 0 0-.33-2.174l-3.677-2.702v-4.41l1.822 1.338a1.563 1.563 0 0 0 2.185-.328 1.55 1.55 0 0 0-.33-2.174l-3.677-2.701v-2.025c0-.664.543-1.204 1.21-1.204H6.58l5.416 6.625a1.546 1.546 0 0 0 .2 1.48 1.563 1.563 0 0 0 1.509.61l2.362 2.89-3.54 2.6a1.55 1.55 0 0 0-.33 2.175 1.563 1.563 0 0 0 2.185.328l1.822-1.338v4.41L12.526 48.4a1.55 1.55 0 0 0-.329 2.175 1.563 1.563 0 0 0 2.185.327l1.822-1.338v2.897zM18.9 28.864V36.062l-2.568-3.142-1.974-2.415-3.748-4.585-2.542-3.11-.352-.43a.327.327 0 0 1-.045-.372.33.33 0 0 1 .319-.2h5.353c1.564 0 2.978.647 3.989 1.685a5.496 5.496 0 0 1 1.568 3.845v1.526zm19.763-16.827h2.676l.28 2.08h-3.236l.28-2.08zm19.314 27.736l-5.133 4.898a3.436 3.436 0 0 1-2.382.953H29.539a3.436 3.436 0 0 1-2.382-.953l-5.133-4.898V28.534H37.5c.244 0 .473-.057.679-.156.522-.252.883-.783.883-1.399 0-.858-.699-1.555-1.562-1.555h-8.45l.378-5.691a2.698 2.698 0 0 1 2.69-2.507H47.882a2.698 2.698 0 0 1 2.691 2.507l.378 5.691H50c-.863 0-1.563.697-1.563 1.555 0 .616.362 1.147.884 1.399.206.099.435.156.679.156h7.977v11.239zm3.125-3.712v-8.723c0-1.493.599-2.849 1.569-3.845a5.553 5.553 0 0 1 3.988-1.685h5.353a.33.33 0 0 1 .319.2.327.327 0 0 1-.045.372l-.352.43-2.542 3.11-3.748 4.585-1.974 2.415-2.568 3.141zm15.774-6.913l-3.677 2.7a1.55 1.55 0 0 0-.33 2.175 1.563 1.563 0 0 0 2.186.328l1.821-1.338v4.41l-3.677 2.702a1.55 1.55 0 0 0-.33 2.174 1.563 1.563 0 0 0 2.185.328l1.822-1.338v4.41L73.198 48.4a1.55 1.55 0 0 0-.33 2.174 1.563 1.563 0 0 0 2.185.328l1.822-1.338v2.897c0 .664-.543 1.203-1.21 1.203h-10.66c-.666 0-1.209-.54-1.209-1.203v-2.897l1.822 1.338a1.563 1.563 0 0 0 2.185-.328 1.55 1.55 0 0 0-.33-2.174L63.797 45.7v-4.41l1.822 1.338a1.563 1.563 0 0 0 2.185-.328 1.55 1.55 0 0 0-.329-2.174l-3.54-2.601 2.362-2.89a1.563 1.563 0 0 0 1.508-.612c.328-.441.384-1 .2-1.478l5.416-6.625h2.246c.667 0 1.21.54 1.21 1.204v2.025z"/>
        <path d="M33.25 31.436a5.585 5.585 0 0 0-7.73-1.11 5.587 5.587 0 0 0-2.294 4.513 5.598 5.598 0 0 0 5.591 5.591 5.598 5.598 0 0 0 5.592-5.591c0-1.28-.433-2.46-1.16-3.403zm-4.433 5.89a2.49 2.49 0 0 1-2.487-2.487 2.49 2.49 0 0 1 2.487-2.487 2.49 2.49 0 0 1 2.488 2.487 2.49 2.49 0 0 1-2.488 2.487zM54.48 30.327a5.56 5.56 0 0 0-3.297-1.08c-1.803 0-3.41.86-4.432 2.189a5.561 5.561 0 0 0-1.16 3.403 5.598 5.598 0 0 0 5.592 5.591 5.598 5.598 0 0 0 5.591-5.591c0-1.851-.904-3.494-2.294-4.512zm-3.297 6.999a2.49 2.49 0 0 1-2.487-2.487 2.49 2.49 0 0 1 2.487-2.488 2.49 2.49 0 0 1 2.487 2.488 2.49 2.49 0 0 1-2.487 2.487zM44.102 41.29h-8.204c-.823 0-1.49.77-1.49 1.72s.667 1.721 1.49 1.721h8.204c.822 0 1.49-.77 1.49-1.72s-.667-1.72-1.49-1.72zM41.433 36.129h-3.726c-.871 0-1.578.77-1.578 1.72s.707 1.72 1.578 1.72h3.726c.871 0 1.578-.77 1.578-1.72s-.707-1.72-1.578-1.72zM45.557 26.33a1.816 1.816 0 0 0-.256-.62 1.628 1.628 0 0 0-.475-.474 1.698 1.698 0 0 0-.62-.256 1.694 1.694 0 0 0-.994.098 1.739 1.739 0 0 0-.77.633 1.706 1.706 0 0 0-.257.62 1.694 1.694 0 0 0-.034.335c0 .455.183.897.504 1.219a1.749 1.749 0 0 0 .47.33c.03.014.058.03.087.041a1.692 1.692 0 0 0 .994.098c.11-.022.219-.055.322-.098.03-.012.058-.027.088-.04a1.677 1.677 0 0 0 .471-.331 1.72 1.72 0 0 0 .372-.56 1.712 1.712 0 0 0 .098-.995z"/>
    </g>
</svg>
