<svg xmlns="http://www.w3.org/2000/svg" width="140" height="91" viewBox="0 0 140 91">
    <g fill="#22A7A7" fill-rule="nonzero">
        <path d="M139.114 63.522V53.517c0-2.348-.375-4.608-1.06-6.73l-.013-.053c-.043-.132-.092-.262-.137-.393-.044-.128-.086-.257-.133-.383-2.491-6.807-8.103-11.797-14.881-13.55l-.014-.005a21.425 21.425 0 0 0-2.063-.427l-.17-.024a21.922 21.922 0 0 0-1.847-.19c-.1-.007-.2-.014-.3-.019a21.749 21.749 0 0 0-1.015-.026H98.9a1.339 1.339 0 0 1-1.253-.883L89.57 8.59C87.745 3.565 82.95.188 77.64.188H32.674c-8.79 0-16.572 5.316-19.827 13.543L7.795 26.494a41.844 41.844 0 0 0-2.94 14.873c-.003.046-.008.092-.008.139v19.878A8.037 8.037 0 0 0 0 68.768v4.959c0 4.424 3.571 8.023 7.961 8.023h7.567a2.745 2.745 0 0 0 2.735-2.756v-3.046h3.292c1.151 8.067 8.052 14.288 16.37 14.288 8.32 0 15.22-6.22 16.371-14.288h31.51c1.152 8.067 8.053 14.288 16.372 14.288 8.318 0 15.22-6.22 16.37-14.288h2.76c.357 2.327 2.353 4.116 4.76 4.116h4.948c4.954 0 8.984-4.061 8.984-9.053v-3.57a9.058 9.058 0 0 0-.886-3.919zM118.33 37.251c.247.013.492.033.736.056l.13.014c.52.055 1.032.135 1.538.238h.002c4.371.905 8.101 3.595 10.412 7.277h-7.741c-3.063 0-5.555-2.512-5.555-5.599v-2c.136.004.272.005.408.011l.07.003zm-108.014 7.01h1.153c2.358 0 4.277 1.934 4.277 4.31v.15c0 2.377-1.919 4.31-4.277 4.31h-1.153v-8.77zm2.478 26.175V76.238H7.96a2.47 2.47 0 0 1-1.587-.576 2.515 2.515 0 0 1-.905-1.936v-4.958a2.505 2.505 0 0 1 2.492-2.512h4.833v4.18zm35.949 5.511c-1.086 5.012-5.523 8.777-10.817 8.777-5.295 0-9.731-3.765-10.817-8.777a11.2 11.2 0 0 1 .19-5.511c1.345-4.634 5.599-8.03 10.627-8.03 5.028 0 9.281 3.396 10.627 8.03a11.201 11.201 0 0 1 .19 5.511zm64.251 0c-1.086 5.012-5.522 8.777-10.817 8.777s-9.73-3.765-10.817-8.777a11.2 11.2 0 0 1 .19-5.511c1.346-4.634 5.6-8.03 10.627-8.03 5.029 0 9.282 3.396 10.628 8.03a11.201 11.201 0 0 1 .19 5.511zm8.251-12.7v7.19h-2.821c-1.458-7.701-8.186-13.542-16.246-13.542-8.06 0-14.789 5.84-16.246 13.542h-31.76c-1.458-7.701-8.186-13.542-16.246-13.542-8.06 0-14.788 5.84-16.246 13.542h-3.417V63.5a2.745 2.745 0 0 0-2.735-2.755h-5.212v-2.203h1.153c5.374 0 9.746-4.406 9.746-9.821v-.15c0-5.415-4.372-9.821-9.746-9.821h-1.01a36.292 36.292 0 0 1 2.416-10.214l5.052-12.764C20.347 9.653 26.137 5.7 32.674 5.7H77.64c3.024 0 5.753 1.923 6.792 4.785l8.077 22.244c.977 2.692 3.545 4.5 6.389 4.5h13.484v2.01c0 6.125 4.945 11.109 11.024 11.109h9.929c.201 1.026.31 2.086.31 3.17v5.266a8.891 8.891 0 0 0-2.63-.396h-4.948c-2.66 0-4.823 2.18-4.823 4.86zm13.286 7.763c0 1.953-1.577 3.542-3.515 3.542h-4.302V63.898h4.302c1.047 0 1.985.466 2.63 1.2.549.624.885 1.443.885 2.342v3.57z"/>
        <path d="M87.795 33.764l-6.27-19.026c-1.243-3.768-4.726-6.3-8.668-6.3H33.286c-5.491 0-10.346 3.526-12.08 8.774l-5.141 15.56a6.666 6.666 0 0 0 .904 5.955 6.567 6.567 0 0 0 5.325 2.745h3.007a2.77 2.77 0 0 0 2.76-2.78 2.77 2.77 0 0 0-2.76-2.78h-3.007c-.465 0-.73-.273-.847-.437a1.037 1.037 0 0 1-.144-.948l5.141-15.56a7.206 7.206 0 0 1 6.842-4.97h16.857v21.915h-2.76a2.77 2.77 0 0 0-2.76 2.78 2.77 2.77 0 0 0 2.76 2.78H82.27a5.822 5.822 0 0 0 4.72-2.432 5.91 5.91 0 0 0 .804-5.276zm-5.28 2.022c-.09.126-.206.126-.244.126H55.663V13.997h17.194a3.609 3.609 0 0 1 3.428 2.492l6.27 19.026a.285.285 0 0 1-.04.271zM82.168 60.348H59.405c-1.533 0-2.776 1.057-2.776 2.36s1.243 2.36 2.776 2.36h22.763c1.533 0 2.776-1.057 2.776-2.36s-1.243-2.36-2.776-2.36zM40.852 73.257a2.393 2.393 0 0 0-1.003-1.5 2.378 2.378 0 0 0-.85-.351 2.323 2.323 0 0 0-1.363.134 2.387 2.387 0 0 0-.765.512 2.258 2.258 0 0 0-.293.358 2.389 2.389 0 0 0-.354.847 2.344 2.344 0 0 0 .137 1.364c.06.141.13.28.217.408a2.258 2.258 0 0 0 .652.651c.042.028.086.053.13.078.09.052.18.1.276.139a2.451 2.451 0 0 0 .903.182 2.372 2.372 0 0 0 1.178-.32c.045-.026.09-.05.132-.079a2.258 2.258 0 0 0 .651-.651 2.415 2.415 0 0 0 .399-1.31c0-.155-.017-.309-.047-.462zM103.773 73.256a2.411 2.411 0 0 0-.644-1.208 2.387 2.387 0 0 0-2.13-.644 2.394 2.394 0 0 0-1.206.644 2.411 2.411 0 0 0-.646 1.208 2.363 2.363 0 0 0 1.004 2.424c.042.028.087.053.131.078.089.052.18.1.275.139a2.368 2.368 0 0 0 .904.182c.414 0 .822-.115 1.179-.32a2.258 2.258 0 0 0 .782-.73 2.345 2.345 0 0 0 .351-.85 2.325 2.325 0 0 0 0-.923z"/>
    </g>
</svg>
