<svg xmlns="http://www.w3.org/2000/svg" width="46" height="56" viewBox="0 0 46 56">
    <g fill="#79C7E1" fill-rule="nonzero">
        <path d="M11.5 30C9.57 30 8 31.57 8 33.5S9.57 37 11.5 37s3.5-1.57 3.5-3.5-1.57-3.5-3.5-3.5zm0 4.77c-.7 0-1.27-.57-1.27-1.27 0-.7.57-1.27 1.27-1.27.7 0 1.27.57 1.27 1.27 0 .7-.57 1.27-1.27 1.27zM34.5 30c-1.93 0-3.5 1.57-3.5 3.5s1.57 3.5 3.5 3.5 3.5-1.57 3.5-3.5-1.57-3.5-3.5-3.5zm0 4.77c-.7 0-1.27-.57-1.27-1.27 0-.7.57-1.27 1.27-1.27.7 0 1.27.57 1.27 1.27 0 .7-.57 1.27-1.27 1.27zM28.835 32h-11.67c-.643 0-1.165.672-1.165 1.5s.522 1.5 1.165 1.5h11.67c.643 0 1.165-.672 1.165-1.5s-.522-1.5-1.165-1.5zM28.835 36h-11.67c-.643 0-1.165.672-1.165 1.5s.522 1.5 1.165 1.5h11.67c.643 0 1.165-.672 1.165-1.5s-.522-1.5-1.165-1.5z"/>
        <path d="M43.66 20.13v-1.902c0-1.457-1.2-2.641-2.675-2.641h-1.52v-3.854c0-1.238-.556-2.35-1.434-3.106l.139-4.645a3.81 3.81 0 0 0-1.106-2.808A3.913 3.913 0 0 0 34.252 0H11.628c-1.073 0-2.073.42-2.819 1.18a3.81 3.81 0 0 0-1.098 2.821l.164 4.709a4.09 4.09 0 0 0-1.34 3.023v3.853h-1.52c-1.475 0-2.676 1.185-2.676 2.642v1.902C.997 20.463 0 21.664 0 23.09v1.071c0 1.683 1.387 3.052 3.092 3.052h1.446a1.1 1.1 0 0 0 1.108-1.094v-4.987a1.1 1.1 0 0 0-1.09-1.093v-1.811c0-.25.206-.454.46-.454h1.519v9.472c-1.57.504-2.708 1.96-2.708 3.675V41.95c-1.674.549-2.886 2.108-2.886 3.943 0 2.144 1.654 3.913 3.77 4.13.072.016.147.023.224.023h.428v3.61C5.363 54.947 6.43 56 7.74 56h4.675c1.31 0 2.376-1.052 2.376-2.346v-3.609h16.42v3.61c0 1.293 1.066 2.345 2.376 2.345h4.675c1.31 0 2.376-1.052 2.376-2.346v-3.609h.428c.077 0 .152-.007.225-.022 2.115-.218 3.769-1.987 3.769-4.131 0-1.835-1.212-3.394-2.886-3.943V30.921c0-1.714-1.138-3.171-2.708-3.674v-9.473h1.52c.253 0 .46.204.46.454v1.812a1.1 1.1 0 0 0-1.09 1.092v4.987a1.1 1.1 0 0 0 1.107 1.094h1.446c1.705 0 3.092-1.369 3.092-3.052v-1.07c0-1.427-.997-2.628-2.34-2.96zM3.43 25.027h-.338a.871.871 0 0 1-.876-.865v-1.07c0-.353.216-.657.524-.791.187.154.428.247.69.251v2.475zM10.403 2.7a1.7 1.7 0 0 1 1.225-.512h22.624a1.7 1.7 0 0 1 1.222.51c.323.328.494.762.48 1.22l-.11 3.728a4.238 4.238 0 0 0-.557-.037H10.713c-.224 0-.443.018-.657.051l-.13-3.734c-.016-.46.153-.895.477-1.226zm-1.652 9.033c0-.869.582-1.606 1.382-1.85a1.98 1.98 0 0 1 .58-.087h24.574c.17 0 .333.023.49.064a1.943 1.943 0 0 1 1.473 1.873v2.314h-3.724a1.1 1.1 0 0 0-1.108 1.093 1.1 1.1 0 0 0 1.108 1.094h3.724v10.824H22.91L15.56 22.59a1.116 1.116 0 0 0-1.525.358 1.086 1.086 0 0 0 .363 1.504l4.286 2.606H8.75V16.234H24.663a1.1 1.1 0 0 0 1.108-1.094 1.1 1.1 0 0 0-1.108-1.093H8.751v-2.314zm3.823 41.921a.16.16 0 0 1-.16.159H7.74a.16.16 0 0 1-.16-.159v-3.608h4.994v3.608zm25.847 0a.16.16 0 0 1-.16.159h-4.675a.16.16 0 0 1-.16-.159v-3.608h4.995v3.608zm3.752-9.23c.41.361.67.884.67 1.468 0 .583-.26 1.106-.67 1.467-.352.31-.814.499-1.322.499H5.15c-.507 0-.97-.19-1.322-.5-.41-.36-.67-.883-.67-1.466 0-.584.26-1.107.67-1.467.352-.31.815-.5 1.322-.5h35.702c.508 0 .97.19 1.322.5zm-2.216-13.503v10.817H6.043V30.921c0-.924.762-1.676 1.698-1.676H38.26a1.69 1.69 0 0 1 1.698 1.676zm3.827-6.76a.871.871 0 0 1-.875.865h-.339V22.226h.339a.88.88 0 0 1 .352.074.865.865 0 0 1 .523.79v1.071z"/>
        <path d="M30.97 14.206a1.47 1.47 0 0 0-.223-.538 1.435 1.435 0 0 0-.415-.415 1.48 1.48 0 0 0-.54-.224 1.477 1.477 0 0 0-.865.086 1.48 1.48 0 0 0-.811.811A1.47 1.47 0 0 0 28 14.5a1.477 1.477 0 0 0 .116.573 1.48 1.48 0 0 0 .811.812A1.515 1.515 0 0 0 29.5 16a1.478 1.478 0 0 0 .573-.115 1.48 1.48 0 0 0 .811-.812 1.477 1.477 0 0 0 .085-.867z"/>
    </g>
</svg>
