<svg xmlns="http://www.w3.org/2000/svg" width="80" height="53" viewBox="0 0 80 53">
    <g fill="#79C7E1" fill-rule="nonzero">
        <path d="M41.154 19.455h-3.69V15.61c0-.9-.701-1.63-1.565-1.63h-5.002c-.864 0-1.564.73-1.564 1.63v3.845h-3.69c-.865 0-1.565.73-1.565 1.63v5.21c0 .9.7 1.63 1.564 1.63h3.69v3.843c0 .9.701 1.63 1.565 1.63H35.9c.864 0 1.564-.73 1.564-1.63v-3.844h3.69c.865 0 1.565-.73 1.565-1.63v-5.21c0-.9-.7-1.63-1.564-1.63zm-1.565 5.21H35.9c-.864 0-1.565.73-1.565 1.63v3.844h-1.872v-3.845c0-.9-.7-1.63-1.565-1.63h-3.69v-1.95h3.69c.864 0 1.565-.73 1.565-1.63V17.24h1.872v3.844c0 .9.7 1.63 1.565 1.63h3.69v1.95z"/>
        <path d="M79.99 34.319c0-.019-.002-.037-.003-.056a6.025 6.025 0 0 0-.023-.271l-.008-.062a6.24 6.24 0 0 0-.035-.26l-.015-.081a5.863 5.863 0 0 0-.044-.228l-.008-.04v-.001c-.007-.032-.016-.063-.024-.095a5.93 5.93 0 0 0-.079-.293l-.036-.126-.055-.16-.04-.117c-.035-.091-.07-.18-.108-.27l-.06-.143-6.94-15.226a4.664 4.664 0 0 0-3.492-2.664V11.55c0-.725-.492-1.334-1.16-1.513l-.12-1.25a4.537 4.537 0 0 0-4.527-4.126h-.845a4.537 4.537 0 0 0-4.528 4.126l-.128 1.334a1.567 1.567 0 0 0-.924 1.43v2.615h-1.276v-1.514c0-2.931-2.378-5.316-5.3-5.316H11.734C5.744 7.335.79 11.862.088 17.684l-.014.11c-.047.431-.074.868-.074 1.31v23.088a3.964 3.964 0 0 0 3.953 3.964h2.804c.49 3.753 3.697 6.66 7.57 6.66s7.08-2.907 7.57-6.66h2.37a4.265 4.265 0 0 0 4.153 3.345h21.96a5.14 5.14 0 0 0 4.806-3.345h2.13c.491 3.753 3.698 6.66 7.57 6.66 3.873 0 7.08-2.907 7.57-6.66h2.929c2.545 0 4.615-2.076 4.615-4.629v-6.883c0-.109-.003-.217-.01-.325zM3.126 29.252h2.848v4.75a.482.482 0 0 1-.48.482H3.124v-5.232zm15.602 16.904c-.456 2.015-2.255 3.525-4.4 3.525-2.145 0-3.944-1.51-4.4-3.525a4.534 4.534 0 0 1 .42-3.134 4.515 4.515 0 0 1 3.98-2.394c1.72 0 3.218.97 3.98 2.394a4.508 4.508 0 0 1 .42 3.134zm33.66-30.424v21.761h-2.752c-.862 0-1.562.702-1.562 1.568 0 .865.7 1.567 1.562 1.567h2.751V44.355a2.013 2.013 0 0 1-2.006 2.012H28.42a1.133 1.133 0 0 1-1.13-1.134v-3.471c0-.626.507-1.134 1.13-1.134h8.715c.863 0 1.563-.702 1.563-1.567 0-.866-.7-1.568-1.563-1.568H28.42c-2.346 0-4.255 1.915-4.255 4.268v1.26h-2.504c-.923-3.189-3.86-5.528-7.334-5.528-3.474 0-6.411 2.34-7.335 5.529H3.953a.83.83 0 0 1-.828-.83v-4.573h2.367a3.615 3.615 0 0 0 3.606-3.617v-6.317c0-.866-.7-1.568-1.563-1.568h-4.41v-6.622h10.488c.863 0 1.562-.702 1.562-1.568 0-.865-.7-1.567-1.562-1.567H3.573c1.146-3.42 4.37-5.89 8.16-5.89h38.479c1.199 0 2.174.978 2.174 2.18v3.082zm15.07 1.567h.826c.595 0 1.14.351 1.387.894l6.335 13.9H61.283a.577.577 0 0 1-.576-.577V17.3h6.75zM60.95 9.086a1.42 1.42 0 0 1 1.418-1.291h.844a1.42 1.42 0 0 1 1.418 1.291l.086.896h-3.851l.085-.896zm-1.038 4.03h5.983v1.049h-5.982v-1.049zm9.374 33.04c-.456 2.015-2.255 3.525-4.4 3.525-2.145 0-3.944-1.51-4.4-3.525a4.534 4.534 0 0 1 .42-3.134 4.515 4.515 0 0 1 3.98-2.394c1.72 0 3.218.97 3.98 2.394a4.508 4.508 0 0 1 .42 3.134zm7.589-4.63c0 .825-.669 1.496-1.49 1.496H72.22c-.924-3.19-3.86-5.529-7.335-5.529-3.473 0-6.41 2.34-7.334 5.529h-2.04V17.299h2.07v14.217a3.71 3.71 0 0 0 3.7 3.712h9.929v2.319a3.362 3.362 0 0 0 3.353 3.363h2.311v.617zm0-3.75h-2.311a.228.228 0 0 1-.228-.23v-2.318h2.539v2.547z"/>
        <path d="M21.718 17.56a1.574 1.574 0 0 0-.233-.559 1.487 1.487 0 0 0-.429-.429 1.587 1.587 0 0 0-.559-.231 1.53 1.53 0 0 0-.896.089 1.543 1.543 0 0 0-.93 1.13 1.542 1.542 0 0 0 .93 1.74 1.568 1.568 0 0 0 .593.117 1.54 1.54 0 0 0 .862-.26 1.477 1.477 0 0 0 .429-.43 1.578 1.578 0 0 0 .233-.56 1.545 1.545 0 0 0 0-.606zM45.017 38.53a1.576 1.576 0 0 0-.424-.794A1.569 1.569 0 0 0 42.9 37.4a1.587 1.587 0 0 0-.503.337 1.497 1.497 0 0 0-.337.504 1.556 1.556 0 0 0 2.534 1.693 1.553 1.553 0 0 0 .423-.795 1.53 1.53 0 0 0 0-.608zM60.127 1.962L58.67.48a1.61 1.61 0 0 0-2.264-.027 1.58 1.58 0 0 0-.028 2.246l1.458 1.483c.314.32.73.48 1.147.48.403 0 .806-.15 1.118-.452a1.58 1.58 0 0 0 .027-2.247zM69.42.452a1.61 1.61 0 0 0-2.264.027l-1.458 1.483a1.58 1.58 0 0 0 .028 2.247c.311.3.714.451 1.118.451.416 0 .832-.16 1.146-.48l1.458-1.482A1.58 1.58 0 0 0 69.42.452z"/>
    </g>
</svg>
