<svg xmlns="http://www.w3.org/2000/svg" width="24" height="24" viewBox="0 0 24 24">
    <path fill="#FFF" fill-rule="nonzero" d="M23 16.97c0-.72-.584-1.303-1.304-1.303h-4.725c-.72 0-1.304.583-1.304 1.304v1.528A11.724 11.724 0 0 1 5.501 8.334h1.528c.72 0 1.304-.584 1.304-1.304V2.304C8.333 1.584 7.749 1 7.029 1 3.755 1 1.104 3.614 1.017 6.867H1c0 .037.005.072.006.108C1.005 6.994 1 7.01 1 7.03c0 .019.01.035.011.054.116 8.736 7.17 15.789 15.906 15.906.019 0 .034.01.054.01.018 0 .036-.005.054-.006.037 0 .072.006.109.006v-.016C20.387 22.896 23 20.244 23 16.97"/>
</svg>
