<svg xmlns="http://www.w3.org/2000/svg" width="32" height="32" viewBox="0 0 32 32">
    <g fill="#22A7A7" fill-rule="nonzero">
        <path d="M5 24.97c0-.72.584-1.303 1.304-1.303h4.725c.72 0 1.304.583 1.304 1.304v1.528a11.724 11.724 0 0 0 10.166-10.165h-1.528c-.72 0-1.304-.584-1.304-1.304v-4.726c0-.72.584-1.304 1.304-1.304 3.274 0 5.925 2.614 6.012 5.867H27c0 .037-.005.072-.006.108.001.019.006.036.006.055 0 .019-.01.035-.011.054-.116 8.736-7.17 15.789-15.906 15.906-.019 0-.034.01-.054.01-.018 0-.036-.005-.054-.006-.037 0-.072.006-.109.006v-.016C7.613 30.896 5 28.244 5 24.97M16.601 8.705a.5.5 0 0 1-.778.627l-4.707-5.839a.5.5 0 1 1 .778-.627l4.707 5.839zM14.611 11.467a.5.5 0 0 1-.126.992l-5.655-.72a.5.5 0 1 1 .126-.992l5.655.72z"/>
        <path d="M15.234 15.166a.5.5 0 1 1 .551.834l-5.379 3.555a.5.5 0 0 1-.551-.835l5.38-3.554z"/>
    </g>
</svg>
