<svg xmlns="http://www.w3.org/2000/svg" width="79" height="50" viewBox="0 0 79 50">
    <g fill="#79C7E1" fill-rule="nonzero">
        <path d="M77.156 6.313v-2.49A3.908 3.908 0 0 0 74.121 0H4.88a3.907 3.907 0 0 0-3.035 3.824v2.489A3.592 3.592 0 0 0 0 9.448V46.409C0 48.389 1.61 50 3.589 50H75.41A3.594 3.594 0 0 0 79 46.409V9.448c0-1.346-.745-2.52-1.844-3.135zM3.772 15.346h3.667v25.165H3.772V15.346zm71.456 30.84H3.772v-1.9h71.455v1.9zM19.625 24.463a1.887 1.887 0 0 0-1.886 1.887v14.16h-6.528V15.347H28.04v25.165H21.51V26.35a1.887 1.887 0 0 0-1.886-1.888zm12.187-9.117h6.528v25.165h-6.528V15.346zm18.714 15.78a1.887 1.887 0 0 0 1.886-1.888V15.346h6.529v25.165H42.112V15.346h6.528v13.892c0 1.043.845 1.888 1.886 1.888zm12.187-15.78h6.528v25.165h-6.528V15.346zm12.515 25.165h-2.215V15.346h2.215v25.165zm.178-29.066H3.95v-1.94h71.456v1.94zM74.04 5.108H6.106a1.366 1.366 0 0 1 0-2.732H74.04a1.366 1.366 0 1 1 0 2.732z"/>
        <path d="M21.962 18.609a2.023 2.023 0 0 0-.852-1.272 2.03 2.03 0 0 0-.718-.298 1.98 1.98 0 0 0-1.156.114 1.974 1.974 0 0 0-.898.738A2.023 2.023 0 0 0 18 19a2.014 2.014 0 0 0 .89 1.661 1.974 1.974 0 0 0 .72.298c.128.026.26.04.39.04.528 0 1.042-.214 1.414-.586a2.005 2.005 0 0 0 .548-1.805zM52.96 36.61a2.016 2.016 0 0 0-.85-1.272 2.025 2.025 0 0 0-.72-.3 2.057 2.057 0 0 0-.782 0 2.025 2.025 0 0 0-.72.3 1.907 1.907 0 0 0-.552.552 1.973 1.973 0 0 0-.298.72 1.969 1.969 0 0 0 0 .78 2.014 2.014 0 0 0 .85 1.272c.11.072.226.134.346.184a1.985 1.985 0 0 0 1.156.114c.128-.024.254-.064.374-.114s.236-.112.346-.184a1.996 1.996 0 0 0 .552-.552 1.974 1.974 0 0 0 .298-.72 1.974 1.974 0 0 0 0-.78z"/>
    </g>
</svg>
