<svg xmlns="http://www.w3.org/2000/svg" width="488" height="226" viewBox="0 0 488 226">
    <g fill="none" fill-rule="evenodd">
        <path fill="#F5F5F5" d="M158.5 136c-26.675 0-48.5-21.825-48.5-48.5v-38C110 22.825 131.825 1 158.5 1S207 22.825 207 49.5v38c0 26.675-21.825 48.5-48.5 48.5"/>
        <path stroke="#BDBDBD" stroke-width="2" d="M158.5 136c-26.675 0-48.5-21.825-48.5-48.5v-38C110 22.825 131.825 1 158.5 1S207 22.825 207 49.5v38c0 26.675-21.825 48.5-48.5 48.5z"/>
        <path stroke="#BDBDBD" stroke-linecap="round" stroke-linejoin="round" stroke-width="2" d="M1 225h158V98"/>
        <path fill="#F5F5F5" d="M243.415 182.325c-20.283 0-36.878-16.595-36.878-36.878 0 0 15.272-107.294 33.937-107.294h5.881c18.666 0 33.938 107.294 33.938 107.294 0 20.283-16.596 36.878-36.878 36.878"/>
        <path stroke="#BDBDBD" stroke-width="2" d="M243.415 182.325c-20.283 0-36.878-16.595-36.878-36.878 0 0 15.272-107.294 33.937-107.294h5.881c18.666 0 33.938 107.294 33.938 107.294 0 20.283-16.596 36.878-36.878 36.878z"/>
        <path stroke="#BDBDBD" stroke-linecap="round" stroke-linejoin="round" stroke-width="2" d="M244.156 223.847v-74.97"/>
        <path fill="#F5F5F5" d="M336.097 152.218h-13.153c-18.198 0-33.086-14.89-33.086-33.086V74.904c0-18.197 14.888-33.086 33.086-33.086h13.153c18.197 0 33.086 14.889 33.086 33.086v44.228c0 18.197-14.89 33.086-33.086 33.086"/>
        <path stroke="#BDBDBD" stroke-width="2" d="M336.097 152.218h-13.153c-18.198 0-33.086-14.89-33.086-33.086V74.904c0-18.197 14.888-33.086 33.086-33.086h13.153c18.197 0 33.086 14.889 33.086 33.086v44.228c0 18.197-14.89 33.086-33.086 33.086z"/>
        <path stroke="#BDBDBD" stroke-linecap="round" stroke-linejoin="round" stroke-width="2" d="M329.929 224.183v-103.04"/>
        <path fill="#F5F5F5" d="M284.691 188.747c-17.23 0-31.328-14.098-31.328-31.328 0 0 12.974-91.148 28.83-91.148h4.996c15.857 0 28.831 91.148 28.831 91.148 0 17.23-14.098 31.328-31.329 31.328"/>
        <path stroke="#BDBDBD" stroke-width="2" d="M284.691 188.747c-17.23 0-31.328-14.098-31.328-31.328 0 0 12.974-91.148 28.83-91.148h4.996c15.857 0 28.831 91.148 28.831 91.148 0 17.23-14.098 31.328-31.329 31.328z"/>
        <path stroke="#BDBDBD" stroke-linecap="round" stroke-linejoin="round" stroke-width="2" d="M285.321 224.02v-63.688"/>
        <path fill="#F5F5F5" d="M438.912 203.083c-10.43 0-18.965-8.534-18.965-18.965 0 0 7.854-55.178 17.453-55.178h3.025c9.598 0 17.453 55.178 17.453 55.178 0 10.431-8.535 18.965-18.966 18.965"/>
        <path stroke="#BDBDBD" stroke-width="2" d="M438.912 203.083c-10.43 0-18.965-8.534-18.965-18.965 0 0 7.854-55.178 17.453-55.178h3.025c9.598 0 17.453 55.178 17.453 55.178 0 10.431-8.535 18.965-18.966 18.965z"/>
        <path stroke="#BDBDBD" stroke-linecap="round" stroke-linejoin="round" stroke-width="2" d="M487 224.436h-47.706v-38.555"/>
        <path fill="#F5F5F5" d="M201.061 180.05h-8.123c-11.237 0-20.433-9.194-20.433-20.433v-27.315c0-11.238 9.196-20.433 20.434-20.433h8.123c11.237 0 20.433 9.195 20.433 20.433v27.315c0 11.239-9.196 20.434-20.434 20.434"/>
        <path stroke="#BDBDBD" stroke-width="2" d="M201.061 180.05h-8.123c-11.237 0-20.433-9.194-20.433-20.433v-27.315c0-11.238 9.196-20.433 20.434-20.433h8.123c11.237 0 20.433 9.195 20.433 20.433v27.315c0 11.239-9.196 20.434-20.434 20.434z"/>
        <path stroke="#BDBDBD" stroke-linecap="round" stroke-linejoin="round" stroke-width="2" d="M197.253 224.495v-63.637"/>
        <path fill="#F5F5F5" d="M381.062 180.05h-8.124c-11.238 0-20.433-9.194-20.433-20.433v-27.315c0-11.238 9.195-20.433 20.433-20.433h8.124c11.238 0 20.433 9.195 20.433 20.433v27.315c0 11.239-9.195 20.434-20.433 20.434"/>
        <path stroke="#BDBDBD" stroke-width="2" d="M381.062 180.05h-8.124c-11.238 0-20.433-9.194-20.433-20.433v-27.315c0-11.238 9.195-20.433 20.433-20.433h8.124c11.238 0 20.433 9.195 20.433 20.433v27.315c0 11.239-9.195 20.434-20.433 20.434z"/>
        <path stroke="#BDBDBD" stroke-linecap="round" stroke-linejoin="round" stroke-width="2" d="M377.253 224.495v-63.637"/>
    </g>
</svg>
