<svg xmlns="http://www.w3.org/2000/svg" width="70" height="46" viewBox="0 0 70 46">
    <g fill="#79C7E1" fill-rule="nonzero">
        <path d="M69.557 32.261V27.26c0-1.174-.187-2.305-.53-3.365l-.007-.027c-.021-.066-.045-.131-.068-.197-.022-.063-.043-.128-.066-.19a10.815 10.815 0 0 0-7.441-6.776l-.007-.002c-.338-.088-.682-.16-1.031-.214l-.085-.012a10.96 10.96 0 0 0-.924-.095l-.15-.01a10.874 10.874 0 0 0-.507-.012h-9.292a.67.67 0 0 1-.626-.442L44.785 4.795C43.873 2.282 41.475.594 38.82.594H16.337c-4.395 0-8.286 2.658-9.914 6.771l-2.525 6.382a20.922 20.922 0 0 0-1.471 7.436c-.001.024-.003.046-.003.07v9.94A4.019 4.019 0 0 0 0 34.883v2.48c0 2.211 1.786 4.01 3.98 4.01h3.784c.755 0 1.367-.616 1.367-1.377v-1.523h1.647c.575 4.034 4.026 7.144 8.185 7.144 4.16 0 7.61-3.11 8.185-7.144h15.755c.576 4.034 4.027 7.144 8.186 7.144s7.61-3.11 8.185-7.144h1.38a2.419 2.419 0 0 0 2.38 2.058h2.474c2.477 0 4.492-2.03 4.492-4.527V34.22a4.53 4.53 0 0 0-.443-1.959zM59.165 19.125c.123.007.246.017.368.029l.065.006a8.064 8.064 0 0 1 .77.12 8.104 8.104 0 0 1 5.206 3.638h-3.87c-1.532 0-2.778-1.256-2.778-2.8v-1l.204.006c.012 0 .023 0 .035.002zM5.158 22.631h.576a2.15 2.15 0 0 1 2.14 2.155v.074a2.15 2.15 0 0 1-2.14 2.156h-.576V22.63zm1.239 13.087v2.901H3.98c-.302 0-.578-.108-.794-.288a1.258 1.258 0 0 1-.453-.968v-2.48c0-.692.56-1.255 1.247-1.255H6.397v2.09zm17.974 2.756c-.543 2.506-2.76 4.388-5.408 4.388-2.648 0-4.866-1.882-5.409-4.388a5.616 5.616 0 0 1 .095-2.756c.673-2.317 2.8-4.015 5.314-4.015 2.514 0 4.64 1.698 5.313 4.015a5.6 5.6 0 0 1 .095 2.756zm32.126 0c-.543 2.506-2.76 4.388-5.408 4.388-2.648 0-4.866-1.882-5.409-4.388a5.616 5.616 0 0 1 .095-2.756c.673-2.317 2.8-4.015 5.314-4.015 2.514 0 4.64 1.698 5.313 4.015a5.6 5.6 0 0 1 .095 2.756zm4.126-6.35v3.594h-1.411c-.73-3.85-4.093-6.77-8.123-6.77-4.03 0-7.394 2.92-8.123 6.77h-15.88c-.729-3.85-4.093-6.77-8.123-6.77-4.03 0-7.394 2.92-8.123 6.77H9.131V32.25c0-.76-.612-1.378-1.367-1.378H5.158v-1.1h.576c2.687 0 4.874-2.204 4.874-4.912v-.074c0-2.708-2.186-4.911-4.874-4.911H5.23c.153-1.75.557-3.462 1.209-5.107l2.525-6.382c1.21-3.06 4.105-5.036 7.374-5.036H38.82a3.63 3.63 0 0 1 3.397 2.392l4.038 11.122a3.414 3.414 0 0 0 3.194 2.25h6.742v1.005c0 3.063 2.473 5.554 5.512 5.554h4.965c.1.513.155 1.043.155 1.586v2.633a4.446 4.446 0 0 0-1.315-.199h-2.474a2.424 2.424 0 0 0-2.411 2.43zm6.643 3.881c0 .977-.789 1.771-1.758 1.771h-2.15V32.45h2.15c.523 0 .993.233 1.315.6.274.312.443.722.443 1.171v1.785z"/>
        <path d="M43.898 17.382l-3.136-9.513a4.563 4.563 0 0 0-4.334-3.15H16.643a6.361 6.361 0 0 0-6.04 4.387l-2.57 7.78a3.333 3.333 0 0 0 .451 2.978 3.283 3.283 0 0 0 2.663 1.372h1.504c.762 0 1.38-.622 1.38-1.39 0-.768-.618-1.39-1.38-1.39h-1.504a.51.51 0 0 1-.424-.218.518.518 0 0 1-.072-.474l2.571-7.78a3.603 3.603 0 0 1 3.421-2.485h8.428v10.957h-1.38c-.762 0-1.38.622-1.38 1.39 0 .768.618 1.39 1.38 1.39h17.445c.932 0 1.814-.455 2.36-1.216a2.955 2.955 0 0 0 .402-2.638zm-2.64 1.011a.14.14 0 0 1-.122.063H27.832V7.499h8.596c.78 0 1.469.5 1.714 1.246l3.136 9.513a.142.142 0 0 1-.02.135zM41.084 30.674H29.703c-.767 0-1.388.528-1.388 1.18 0 .652.621 1.18 1.388 1.18h11.38c.767 0 1.389-.528 1.389-1.18 0-.652-.622-1.18-1.388-1.18zM20.426 37.129a1.197 1.197 0 0 0-.502-.75 1.164 1.164 0 0 0-.424-.176 1.161 1.161 0 0 0-.682.067 1.194 1.194 0 0 0-.529.435 1.194 1.194 0 0 0-.2.655 1.17 1.17 0 0 0 .526.98c.02.014.043.026.065.04a1.182 1.182 0 0 0 .36.136 1.162 1.162 0 0 0 .819-.137c.022-.013.044-.025.065-.039a1.129 1.129 0 0 0 .326-.326 1.207 1.207 0 0 0 .2-.654c0-.078-.009-.155-.024-.231zM51.887 37.128a1.249 1.249 0 0 0-.176-.423 1.194 1.194 0 0 0-.147-.18 1.193 1.193 0 0 0-1.286-.256 1.197 1.197 0 0 0-.53.436 1.206 1.206 0 0 0-.175.423 1.182 1.182 0 0 0 .503 1.212c.02.014.043.026.065.04a1.19 1.19 0 0 0 .358.136 1.187 1.187 0 0 0 1.411-1.156c0-.077-.008-.155-.023-.232z"/>
    </g>
</svg>
