<svg xmlns="http://www.w3.org/2000/svg" width="180" height="180" viewBox="0 0 180 180">
    <g fill="none" fill-rule="nonzero">
        <path fill="#22A7A7" d="M44 46h96a4 4 0 0 1 4 4v59c0 28.719-23.281 52-52 52s-52-23.281-52-52V50a4 4 0 0 1 4-4z"/>
        <path fill="#22A7A7" d="M67.133 48.468l17.984-17.984c3.906-3.905 10.237-3.905 14.142 0l17.985 17.984-25.056 25.056-25.055-25.056zm25.512-3.173a4.563 4.563 0 1 0 0-9.126 4.563 4.563 0 0 0 0 9.126z"/>
        <path stroke="#000" stroke-linecap="round" stroke-linejoin="round" stroke-width="2" d="M68.737 46.929c-8.276-.188-16.576-1.228-24.827-.565-1.344.108-2.838 1.45-2.921 2.794-1.138 18.343-1.194 36.759-.672 55.13.247 8.691.403 17.608 2.973 25.915 7.867 25.429 47.114 40.067 69.638 27.82M73.394 43.505c32.47-37.477 16.74 2.039 52.655 2.039M134.78 46.145c8.893 0 8.893 1.406 9.013 9.842.718 50.448 11.764 73.028-25.525 98.177"/>
        <circle cx="92.5" cy="96.5" r="25.5" fill="#F9F9F9"/>
        <path stroke="#000" stroke-linecap="round" stroke-linejoin="round" stroke-width="2" d="M96.348 38.895c.765 6.343-4.406 6.805-7.486 4.903-3.153-1.946-2.722-8.87 3.863-8.016"/>
        <path fill="#22A7A7" d="M103.677 89.64c.735-.827 1.956-.857 2.726-.067s.799 2.102.063 2.93l-14.736 16.57c-.76.855-2.03.855-2.79 0l-8.406-9.454c-.736-.827-.708-2.138.063-2.928.77-.79 1.99-.76 2.726.067l7.013 7.886 13.34-15.003z"/>
        <path stroke="#000" stroke-linecap="round" stroke-linejoin="round" stroke-width="2" d="M100.514 73.055c-44.093-8.04-43.695 45.546-10.944 49.515 30.176 3.658 37.469-31.958 17.274-47.172"/>
    </g>
</svg>
